<?xml version="1.0" encoding="utf-8" ?><svg xmlns="http://www.w3.org/2000/svg" xmlns:xlink="http://www.w3.org/1999/xlink" width="1024" height="1024" viewBox="0 0 1024 1024"><path fill="current" transform="scale(1.5876 1.5876)" d="M527.74 55.8716C530.801 55.3079 537.724 55.6674 540.88 56.2839C558.396 59.7061 565.023 88.3124 568.68 103.338C582.506 160.138 578.859 221.227 566.728 278.043C572.714 293.491 576.533 307.006 579.436 323.471C580.653 330.374 581.55 337.207 582.744 344.05C591.865 342.146 625.352 334.998 632.97 337.14C635.357 337.811 637.036 339.326 638.139 341.539C639.478 344.226 639.732 347.52 638.772 350.367C637.927 352.876 636.159 355.085 633.717 356.181C630.293 357.718 626.002 357.558 622.303 358.03C612.824 359.242 590.737 361.878 583.067 365.894L582.642 366.119C582.792 372.227 582.702 378.151 581.956 384.223C581.395 388.789 580.571 393.118 580.21 397.715C587.84 401.364 602.222 402.99 610.823 405.297C618.115 407.252 630.284 406.883 628.547 418.948C626.517 433.039 605.844 424.664 596.818 423.196C590.036 422.093 581.652 420.597 574.849 419.024C570.716 431.61 565.457 443.797 559.134 455.438C565.445 459.371 583.262 466.521 586.076 472.667C587.272 475.279 587.189 478.287 586.174 480.942C585.256 483.345 583.543 485.207 581.138 486.169C579.133 486.971 577.016 487.06 574.911 486.642C570.364 485.738 566.011 483.019 561.857 481.045C556.904 478.698 551.936 476.381 546.956 474.094C543.328 477.911 539.639 483.066 535.881 487.143C528.164 495.516 519.666 503.411 510.677 510.43C447.176 559.964 361.379 575.665 282.645 566.976C217.293 559.764 145.727 531.437 104 478.608C102.778 477.093 101.971 475.982 100.882 474.374C93.0647 477.145 77.4861 487.602 71.0921 487.716C68.1131 487.77 65.0735 486.708 62.9997 484.526C61.2126 482.645 59.9057 479.805 60.0016 477.183C60.0716 475.271 60.6958 473.179 61.8871 471.658C65.9721 466.446 81.9554 461.124 87.7853 455.675C87.8748 455.591 87.9614 455.505 88.0494 455.419C80.5889 443.243 77.8397 433.74 73.0144 420.964C69.2207 421.963 60.8919 423.686 57.0409 424.466C48.3601 426.223 33.3175 431.231 25.2578 430.774C22.7201 429.031 19.9204 427.128 18.8542 424.125C17.1559 419.343 18.0752 413.836 23.0337 411.543C26.838 409.784 30.8704 409.025 34.9101 408.063C41.2788 406.566 47.6554 405.103 54.0396 403.673C58.5704 402.639 63.2386 401.723 67.5954 400.143C66.4954 391.797 64.8447 383.58 64.367 375.129C64.1801 371.823 63.9213 368.258 63.3919 365.008C52.6073 361.994 39.4992 360.2 28.3914 358.462C23.4811 357.611 18.3922 357.796 13.5658 356.538C8.59732 355.243 5.9603 349.63 6.56446 344.84C6.8456 342.435 8.10683 340.252 10.0504 338.807C11.416 337.803 13.7083 336.954 15.3773 336.965C31.5126 337.072 48.906 341.429 64.621 343.708C66.2964 335.849 67.2486 324.093 68.7889 315.37C71.3921 300.629 74.7882 290.9 79.3681 276.785C71.1437 242.779 66.0531 200.429 68.0889 165.366C69.2491 141.716 73.1292 118.279 79.6524 95.5171C84.9875 76.4123 91.3703 53.1948 115.643 56.1462C128.851 57.7522 140.493 61.1315 152.86 65.9602C198.26 83.6868 233.867 114.266 265.29 150.809C269.969 149.071 278.929 147.31 283.918 146.4C316.049 140.592 349.081 142.164 380.516 150.998L384.243 146.358C388.243 141.429 391.926 137.668 396.211 133.02C424.095 102.767 460.511 76.4498 499.413 62.7145C508.089 59.6512 518.599 56.8229 527.74 55.8716ZM396.403 191.937C394.12 191.342 392.471 190.855 390.247 190.077C388.096 189.398 385.843 188.539 383.733 187.75C348.506 174.588 309.195 173.075 273.04 183.376C264.257 185.878 256.912 189.098 247.556 189.744C241.662 184.339 234.151 172.051 228.157 165.255C202.072 135.678 173.161 107.482 135.812 92.8075C124.421 88.3316 116.046 85.9664 110.92 100.422C98.7257 134.542 97.9999 173.878 106.966 208.842C109.831 220.014 113.398 228.403 118.093 238.787C117.18 240.58 115.313 243.301 114.174 245.162C111.863 248.946 109.653 252.791 107.545 256.692C104.301 262.717 89.9801 289.446 91.9008 295.202C92.5191 297.054 93.8893 298.517 95.4427 299.647C97.7977 301.359 100.609 302.469 103.183 303.815C106.077 305.328 108.915 306.947 111.82 308.447C123.803 314.515 135.737 320.679 147.622 326.937C149.542 322.885 152.177 318.999 155.046 315.457C176.1 289.467 211.517 278.138 243.742 286.863C268.273 293.505 282.082 306.032 294.808 327.408C297.781 326.595 303.342 324.036 307.082 322.953C327.069 317.16 337.794 320.976 355.987 327.585C362.417 314.342 375.405 301.327 388.275 294.414C408.439 283.481 432.127 281.027 454.104 287.595C474.117 293.667 492.323 307.594 502.201 326.185C502.463 326.078 502.724 325.966 502.984 325.852C511.833 321.83 520.442 316.907 529.139 312.533C535.775 309.195 543.206 306.203 549.44 302.239C550.873 301.328 552.305 300.426 552.868 298.746C555.632 290.491 538.465 257.185 533.655 248.526C531.861 245.297 529.595 242.324 527.867 239.075L527.736 238.823C528.348 236.842 529.182 234.902 530.042 233.024C537.977 215.691 542.342 196.87 543.741 177.855C545.452 154.598 544.271 130.258 537.625 107.774C536.109 102.292 531.35 87.2491 523.672 88.1341C511.007 89.5939 494.7 99.3795 484.158 105.852C460.343 120.472 440.188 140.051 421.687 160.648C417.32 165.511 413.105 170.508 409.05 175.633C406.727 178.599 401.757 185.715 399.292 187.782C398.344 189.177 397.381 190.563 396.403 191.937ZM546.65 414.13C541.292 413.305 535.93 412.508 530.564 411.741C524.871 410.967 515.97 410.776 512.228 405.805C509.449 402.112 510.424 394.475 514.533 391.945C518.526 389.415 525.623 390.848 530.243 391.376L547.173 393.325C552.462 393.895 553.59 395.095 554.888 389.622C556.332 383.531 557.031 377.502 558.205 371.429L557.786 371.485C551.016 372.423 533.372 379.222 529.322 372.34C526.185 369.157 525.748 362.994 528.387 359.434C531.322 354.811 555.725 352.546 559.009 348.571C560.957 346.214 558.236 328.128 557.543 324.303C554.47 326.245 547.64 329.368 544.075 331.328C533.445 337.172 522.643 342.666 511.803 348.105C510.779 348.813 509.453 349.657 508.581 350.505C507.662 352.072 507.453 353.764 507.423 355.55C507.052 377.434 498.752 391.063 481.845 404.994C439.349 440.011 362.531 424.022 351.128 365.803C349.48 357.381 351.632 353.129 342.696 348.508C333.843 343.83 323.468 342.958 313.959 346.093C309.929 347.406 303.254 350.177 301.278 354.141C299.936 356.835 299.616 362.032 299.103 365.195C298.695 367.609 298.145 369.997 297.456 372.347C293.821 384.878 283.043 399.645 272.776 407.563C267.154 411.84 260.904 415.221 254.247 417.585C231.917 425.656 206.774 425.836 185.125 415.564C167.741 407.317 152.158 392.138 145.704 373.777C143.197 366.643 142.379 359.305 142.159 351.809C141.178 350.226 139.951 348.765 138.308 347.821C135.378 346.136 132.326 344.728 129.193 343.447C116.891 338.414 105.104 332.148 93.9689 324.894C92.7939 324.128 91.6002 323.388 90.54 322.473C89.3974 330.293 88.0526 340.406 88.5461 348.287C95.5388 351.499 117.373 353.074 119.26 360.487C124.505 381.093 100.075 372.113 89.7483 370.314C89.7243 376.388 92.3577 388.555 94.8108 394.235C103.212 393.015 120.053 388.937 127.365 389.486C129.234 389.626 131.096 390.24 132.597 391.382C134.836 393.087 135.985 395.564 136.24 398.337C136.471 400.853 136.271 403.192 134.522 405.141C129.991 410.19 108.851 411.678 101.469 414.272C103.687 420.9 112.596 437.29 117.149 442.332C127.402 437.894 137.551 433.035 147.903 428.814C151.485 427.354 157.753 424.486 161.283 423.848C163.366 423.451 165.52 423.663 167.486 424.458C174.744 427.404 176.392 437.148 169.368 441.483C165.463 443.893 161.069 444.866 157.067 446.806C148.448 450.985 138.414 454.625 130.145 459.359C134.453 464.837 144.89 474.376 150.312 478.944C188.221 510.886 237.36 529.565 286.31 535.369C297.046 536.642 313.955 537.956 324.775 537.758C383.162 536.689 444.814 520.322 491.454 484.028C499.24 477.968 510.105 468.819 516.245 461.443C503.928 454.958 491.811 449.395 478.883 444.197C476.375 443.188 471.551 439.774 469.039 438.153C469.145 438.079 469.252 438.007 469.357 437.933C474.961 433.973 472.289 423.973 484.138 425.99C487.793 426.612 491.591 428.185 495.08 429.448C502.495 432.131 509.951 434.988 517.211 438.063C521.549 439.901 525.889 442.174 530.367 443.609C535.38 435.741 543.184 422.827 546.65 414.13ZM225.19 401.576C251.759 400.348 279.074 381.475 277.8 352.382C276.523 323.202 245.334 305.236 218.563 306.453C218.189 306.467 217.862 306.519 217.495 306.575C173.128 310.435 143.22 354.033 181.924 387.892C192.334 396.998 211.315 403.151 225.19 401.576ZM425.886 306.573C409.021 307.901 394.195 315.053 383.069 327.823C366.406 346.948 370.529 371.92 389.569 387.653C401.893 397.919 417.773 402.9 433.752 401.513C461.102 399.643 487.979 380.658 486.288 350.669C485.636 339.092 478.637 328.132 470.128 320.695C458.188 310.081 441.922 305.451 426.119 306.531C426.041 306.545 425.964 306.559 425.886 306.573Z"/><path fill="current" transform="scale(1.5876 1.5876)" d="M510.146 123.538C511.672 123.31 513.593 123.09 514.936 124.01C517.84 125.999 518.858 133.447 519.51 136.806C524.081 160.364 520.847 195.388 506.995 215.394C503.6 213.425 499.187 209.879 495.66 207.592C486.967 201.956 479.667 198.737 470.108 194.947C468.924 194.466 467.561 193.7 466.409 193.096C467.511 189.473 470.448 185.244 469.405 181.783C465.708 178.393 451.773 186.452 447.236 184.78C442.669 183.096 450.65 172.012 451.932 170.106C463.157 153.301 478.186 139.379 495.799 129.469C499.793 127.262 505.649 124.417 510.146 123.538Z"/><path fill="current" transform="scale(1.5876 1.5876)" d="M131.54 123.786C140.336 123.418 150.638 129.273 157.808 134.022C172.154 143.645 184.56 155.884 194.376 170.099C196.371 172.94 202.216 180.788 199.82 184.15C195.344 186.709 179.724 177.684 175.829 182.238C175.073 185.014 178.885 189.296 179.953 192.892C176.904 194.447 173.372 195.51 170.227 196.898C161.829 200.579 153.745 204.812 146.341 210.255C144.282 211.769 141.291 213.988 139.075 215.062C126.141 195.827 121.394 162.306 125.755 139.705C126.766 134.463 127.123 126.95 131.54 123.786Z"/><path fill="current" fill-opacity="0.019607844" transform="scale(1.5876 1.5876)" d="M295.472 322.698L296.104 322.797C296.682 323.503 296.506 323.224 296.816 324.098L296.52 324.416L295.278 323.841C295.011 324.513 295.363 325.027 295.63 325.919L295.864 326.232L295.627 326.459C293.879 325.151 294.519 324.058 295.472 322.698Z"/><path fill="current" transform="scale(1.5876 1.5876)" d="M297.947 457.823C303.399 460.71 310.966 463.44 313.41 454.73C316.119 445.068 300.199 443.512 296.676 436.448C296.164 435.422 295.531 434.426 295.423 433.193C295.139 429.366 294.06 417.598 294.69 414.455C295.799 412.678 297.941 411.912 299.859 411.302C309.018 408.389 342.865 406.788 351.159 411.248C352.758 412.108 353.421 413.854 353.887 415.513C357.126 427.046 352.775 436.953 342.884 443.319C340.839 444.635 335.419 446.709 334.491 448.992C333.768 450.773 334.352 453.432 334.979 455.158C335.722 457.204 336.959 459.386 339.035 460.31C343.944 462.494 349.165 457.672 353.528 456.092C355.714 455.3 358.254 454.932 360.404 456.036C361.834 456.771 363.186 458.317 363.613 459.879C364.282 462.317 362.993 465.674 361.751 467.741C358.824 472.613 352.69 475.682 347.324 476.985C339.148 478.97 331.12 477.225 324.076 472.861C321.073 474.895 317.701 476.323 314.15 477.065C306.456 478.656 297.939 477.708 291.285 473.237C286.821 470.238 280.767 463.218 284.73 457.819C288.832 453.994 293.519 455.303 297.947 457.823Z"/><path fill="current" transform="scale(1.5876 1.5876)" d="M284.73 457.819C288.832 453.994 293.519 455.303 297.947 457.823C297.272 458.366 297.543 458.189 296.673 458.454C294.792 457.957 289.898 457.445 288.879 457.048C289.967 456.739 290.44 456.502 291.475 456.019C289.855 455.997 287.582 456.934 286.2 457.765C285.752 458.437 286.045 458.2 285.234 458.395L284.73 457.819Z"/><path fill="current" transform="scale(1.5876 1.5876)" d="M426.53 323.165C443.437 321.908 458.192 334.527 459.573 351.425C460.954 368.323 448.443 383.17 431.556 384.675C414.493 386.195 399.457 373.525 398.062 356.451C396.666 339.377 409.446 324.435 426.53 323.165Z"/><path fill="current" transform="scale(1.5876 1.5876)" d="M218.812 323.244C235.73 322.056 250.427 334.765 251.693 351.678C252.959 368.59 240.319 383.346 223.413 384.691C206.394 386.044 191.52 373.302 190.246 356.278C188.971 339.254 201.782 324.439 218.812 323.244Z"/><path fill="current" transform="scale(1.5876 1.5876)" d="M528.387 359.434C528.89 360.593 528.174 361.559 527.612 362.672L528.055 362.968L528.237 362.677C528.492 362.272 528.383 362.43 528.667 362.065C529.867 365.391 526.309 367.181 529.267 371.396L529.322 372.34C526.185 369.157 525.748 362.994 528.387 359.434Z"/><path fill="current" transform="scale(1.5876 1.5876)" d="M390.247 190.077C393.471 188.15 396.658 191.509 398.54 187.629L399.292 187.782C398.344 189.177 397.381 190.563 396.403 191.937C394.12 191.342 392.471 190.855 390.247 190.077Z"/><path fill="current" transform="scale(1.5876 1.5876)" d="M508.581 350.505C508.119 349.154 507.306 347.582 507.979 346.292C509.378 346.372 510.381 347.486 511.803 348.105C510.779 348.813 509.453 349.657 508.581 350.505Z"/><path fill="current" transform="scale(1.5876 1.5876)" d="M419.302 153.781C420.152 153.978 420.093 153.963 420.785 154.502C421.347 155.494 421.156 156.021 421.028 157.166C420.255 156.904 420.187 156.748 419.554 156.205C419.072 155.182 419.188 154.895 419.302 153.781Z"/><path fill="current" transform="scale(1.5876 1.5876)" d="M451.453 122.402C451.94 121.995 452.661 122.048 453.084 122.522C453.507 122.995 453.478 123.718 453.02 124.156C452.709 124.453 452.261 124.557 451.851 124.427C451.441 124.297 451.135 123.954 451.052 123.533C450.969 123.111 451.122 122.677 451.453 122.402Z"/><path fill="current" transform="scale(1.5876 1.5876)" d="M435.545 137.935C436.442 138.253 436.219 138.19 437.03 138.769C437.526 140.019 437.447 139.375 437.163 140.779C436.207 140.648 436.231 140.545 435.449 139.928C435.033 138.684 435.069 139.325 435.545 137.935Z"/></svg>