<?xml version="1.0" encoding="utf-8" ?><svg xmlns="http://www.w3.org/2000/svg" xmlns:xlink="http://www.w3.org/1999/xlink" width="1024" height="559" viewBox="0 0 1024 559"><path fill="#395560" transform="scale(0.727273 0.727865)" d="M382.17 300.662C393.918 241.258 435.559 266.846 472.381 283.919C477.606 286.341 479.772 290.676 486.001 291.228L486.692 291.283L485.262 294.808C481.724 302.639 476.968 310.272 472.428 317.591C502.143 336.032 525.872 362.079 546.219 390.156C548.672 385.241 555.056 376.993 558.562 372.437L559.965 371.09L560.683 371.56C563.016 372.141 564.19 372.075 565.63 374.369C570.746 382.52 574.714 400.596 571.249 409.858C572.71 416.121 573.924 421.084 574.621 427.472C576.119 430.838 576.972 432.952 579.126 436.007C584.117 440.271 585.034 443.563 587.012 449.679C591.959 464.978 595.569 477.309 606.658 489.195C607.64 490.248 607.986 502.035 609.64 506.23L611.611 504.691C615.966 499.411 623.025 474.408 626.917 466.538C628.307 463.726 631.578 459.981 633.586 456.657C637.491 447.166 637.201 436.684 648.172 433.99C656.325 446.29 673.477 451.824 687.673 451.6C689.106 448.356 690.534 445.196 691.772 441.868C697.442 445.332 696.092 444.773 696.428 451.158C693.164 460.551 691.763 467.502 689.964 477.318L693.374 482.442C694.17 500.379 691.521 495.445 686.676 510.121C682.356 523.205 681.915 546.014 676.215 558.685C681.987 558.082 694.884 558.458 699.294 557.229L699.525 559.736C704.723 565.38 708.479 569.462 714.659 574.005C717.659 576.212 722.203 578.865 724.691 581.056C734.16 579.573 748.175 576.72 757.639 576.995C758.724 577.027 761.338 578.704 762.385 579.382C770.245 587.817 773.416 597.781 774.888 608.983C774.829 613.524 774.951 618.988 774.202 623.4C772.99 627.282 772.561 629.286 768.963 631.552C766.597 632.067 763.667 632.619 761.379 633.238C754.663 634.93 743.073 637.515 736.854 639.817C732.764 644.254 729.751 647.859 724.194 650.502C714.499 655.112 701.932 657.956 691.465 660.722L647.951 672.144C645.268 672.855 636.014 674.933 634.319 676.434C628.69 673.327 602.496 686.147 596.031 688.677C591.071 690.617 583.822 689.67 577.767 691.694C574.36 700.403 579.897 717.678 579.495 727.164C578.914 740.885 572.763 754.792 568.821 768L452.291 768L308.815 768L283.616 768L256.13 768C255.482 758.412 252.455 747.599 250.928 738.094C247.012 713.719 241.525 688.846 236.253 664.969C231.683 644.272 230.705 611.675 235.411 591.365C239.156 575.199 263.569 564.973 277.535 559.987C293.218 552.893 306.57 552.572 321.669 547.695C330.314 544.903 327.984 520.64 330.195 513.441C331.819 508.152 333.928 500.73 335.596 495.247C342.063 467.863 350.641 440.618 361.036 414.495C362.559 410.666 361.755 409.28 359.816 405.86C359.296 405.423 358.785 404.977 358.282 404.522C347.894 395.091 345.787 383.261 345.131 369.751C344.674 348.392 351.566 334.283 371.403 324.496C376.608 320.831 380.128 307.04 382.17 300.662Z"/><path fill="#193342" transform="scale(0.727273 0.727865)" d="M452.291 768C466.542 764.184 504.099 767.765 509.2 751.235C507.836 745.299 486.83 737.434 481.318 732.81C478.364 730.332 471.258 726.068 469.447 722.121C461.603 705.018 454.076 684.968 447.65 667.437C432.65 626.515 416.025 586.254 403.255 544.648C399.691 533.037 394.16 517.402 391.741 505.776C404.839 537.607 424.277 567.846 442.603 596.803C455.806 618.776 470.376 639.901 485.329 660.687C495.358 675.368 501.363 682.246 516.525 691.231C540.631 705.514 554.325 693.039 577.254 691.72L577.767 691.694C574.36 700.403 579.897 717.678 579.495 727.164C578.914 740.885 572.763 754.792 568.821 768L452.291 768Z"/><path fill="#395560" transform="scale(0.727273 0.727865)" d="M633.586 456.657C637.491 447.166 637.201 436.684 648.172 433.99C656.325 446.29 673.477 451.824 687.673 451.6C689.106 448.356 690.534 445.196 691.772 441.868C697.442 445.332 696.092 444.773 696.428 451.158C693.164 460.551 691.763 467.502 689.964 477.318L693.374 482.442C694.17 500.379 691.521 495.445 686.676 510.121C682.356 523.205 681.915 546.014 676.215 558.685C675.122 562.345 672.83 570.812 671.473 573.989C668.083 572.639 660.051 578.252 654.983 578.682C639.127 580.029 622.244 580.918 606.679 577.582C599.505 555.117 606.716 527.269 611.611 504.691C615.966 499.411 623.025 474.408 626.917 466.538C628.307 463.726 631.578 459.981 633.586 456.657Z"/><path fill="#193342" transform="scale(0.727273 0.727865)" d="M633.586 456.657C637.491 447.166 637.201 436.684 648.172 433.99C656.325 446.29 673.477 451.824 687.673 451.6C689.106 448.356 690.534 445.196 691.772 441.868C697.442 445.332 696.092 444.773 696.428 451.158C693.164 460.551 691.763 467.502 689.964 477.318C679.033 489.062 658.934 482.949 647.771 474.559C641.042 469.501 637.07 464.078 633.586 456.657Z"/><path fill="#193342" transform="scale(0.727273 0.727865)" d="M323.846 555.327C316.962 605.078 312.415 656.029 308.567 706.154C307.169 724.364 304.449 750.467 308.815 768L283.616 768C277.082 733.373 270.813 698.696 264.81 663.972C262.191 648.716 259.087 633.276 257.456 617.86C252.631 572.229 288.236 564.602 323.846 555.327Z"/><path fill="#718E97" transform="scale(0.727273 0.727865)" d="M445.166 384.731C509.444 375.805 520.295 452.475 536.86 497.024C543.542 514.996 552.025 532.02 560.099 549.39C565.865 561.794 567.79 573.622 578.704 582.317C579.652 585.536 578.983 589.972 581.945 591.771L583.696 591.097C599.429 584.446 603.608 589.152 618.676 588.956C630.527 588.802 646.848 584.367 659.386 584.592C661.766 584.634 666.169 584.313 668.024 582.923C669.231 580.087 670.369 576.893 671.473 573.989C672.83 570.812 675.122 562.345 676.215 558.685C681.987 558.082 694.884 558.458 699.294 557.229L699.525 559.736C704.723 565.38 708.479 569.462 714.659 574.005C717.659 576.212 722.203 578.865 724.691 581.056C726.37 583.774 727.794 585.974 729.099 588.921C721.992 587.149 719.003 581.591 709.184 581.584C697.116 581.575 686.817 587.514 675.706 589.205C656.622 592.109 637.277 592.731 618.135 596.552C610.275 598.121 593.01 588.701 588.599 600.78C585.079 610.55 583.146 620.865 579.79 630.756C579.168 619.079 579.529 607.182 578.84 595.715C574.4 600.031 554.543 626.564 552.765 626.955L552.54 626.866C558.409 612.152 564.469 604.301 571.577 591.324L571.615 591.044C570.957 590.136 571.213 590.088 570.357 589.961C556.55 587.912 540.126 599.864 529.457 606.676C535.047 600.873 540.928 595.89 547.493 591.222C551.242 588.557 555.401 586.115 558.866 583.099C559.972 582.136 561.018 581.419 561.238 579.887C562.853 568.687 531.668 511.877 525.867 496.257C518.73 477.042 516.192 456.322 508.433 437.193C504.819 428.283 500.174 419.597 494.252 411.999C479.965 393.672 468.056 387.629 445.166 384.731Z"/><path fill="#D1E0E1" transform="scale(0.727273 0.727865)" d="M699.294 557.229L699.525 559.736C697.32 562.815 698.392 565.378 699.498 568.635C696.818 569.64 695.836 569.39 694.868 571.37C695.622 573.107 696.259 574.612 697.178 576.284C693.165 577.389 670.531 583.93 668.024 582.923C669.231 580.087 670.369 576.893 671.473 573.989C672.83 570.812 675.122 562.345 676.215 558.685C681.987 558.082 694.884 558.458 699.294 557.229Z"/><path fill="#92B0B5" transform="scale(0.727273 0.727865)" d="M699.498 568.635C701.757 570.648 703.242 572.14 705.303 574.362L697.178 576.284C696.259 574.612 695.622 573.107 694.868 571.37C695.836 569.39 696.818 569.64 699.498 568.635Z"/><path fill="#193342" transform="scale(0.727273 0.727865)" d="M579.126 436.007C584.117 440.271 585.034 443.563 587.012 449.679C591.959 464.978 595.569 477.309 606.658 489.195C607.64 490.248 607.986 502.035 609.64 506.23L611.611 504.691C606.716 527.269 599.505 555.117 606.679 577.582C622.244 580.918 639.127 580.029 654.983 578.682C660.051 578.252 668.083 572.639 671.473 573.989C670.369 576.893 669.231 580.087 668.024 582.923C666.169 584.313 661.766 584.634 659.386 584.592C646.848 584.367 630.527 588.802 618.676 588.956C603.608 589.152 599.429 584.446 583.696 591.097C582.981 588.65 583.887 568.883 583.909 564.521C584.071 531.942 585.034 497.887 582.259 465.453C580.834 459.251 579.798 442.983 579.126 436.007Z"/><path fill="#395560" transform="scale(0.727273 0.727865)" d="M579.126 436.007C584.117 440.271 585.034 443.563 587.012 449.679C591.959 464.978 595.569 477.309 606.658 489.195C607.64 490.248 607.986 502.035 609.64 506.23C601.755 521.284 601.613 524.71 595.784 539.577C595.349 530.225 586.104 471.712 583.616 465.961L582.259 465.453C580.834 459.251 579.798 442.983 579.126 436.007Z"/><path fill="#193342" transform="scale(0.727273 0.727865)" d="M358.291 383.406C369.005 380.937 380.816 373.968 391.055 368.962C424.269 352.726 454.396 347.865 486.062 369.32C509.681 385.323 526.609 398.572 546.501 419.086C539.927 415.69 531.09 409.22 525.021 404.671C510.981 394.005 496.487 385.529 481.328 376.74C462.935 366.076 446.349 360.64 425.413 367.447C402.463 374.91 387.425 391.596 368.736 405.413C364.544 408.513 363.33 406.15 359.816 405.86C359.296 405.423 358.785 404.977 358.282 404.522C347.894 395.091 345.787 383.261 345.131 369.751C349.514 377.972 349.537 380.386 358.291 383.406Z"/><path fill="#193342" transform="scale(0.727273 0.727865)" d="M724.691 581.056C734.16 579.573 748.175 576.72 757.639 576.995C758.724 577.027 761.338 578.704 762.385 579.382C770.245 587.817 773.416 597.781 774.888 608.983C774.829 613.524 774.951 618.988 774.202 623.4C772.99 627.282 772.561 629.286 768.963 631.552C766.597 632.067 763.667 632.619 761.379 633.238C754.663 634.93 743.073 637.515 736.854 639.817C737.05 637.695 737.783 635.047 738.167 632.824C740.423 619.783 737.503 599.417 729.099 588.921C727.794 585.974 726.37 583.774 724.691 581.056Z"/><path fill="#193342" transform="scale(0.727273 0.727865)" d="M472.428 317.591C461.117 309.037 413.629 287.481 412.135 275.031C416.753 261.852 480.355 287.119 485.262 294.808C481.724 302.639 476.968 310.272 472.428 317.591Z"/><path fill="#F5F8F8" transform="scale(0.727273 0.727865)" d="M574.621 427.472C574.717 435.451 576.026 444.9 576.719 453.07C578.628 475.562 580.503 498.046 579.154 520.633C579.082 521.837 578.201 522.045 577.298 522.559L576.156 522.09C573.45 516.571 572.793 447.045 571.07 435.085C570.372 430.244 568.203 416.833 568.492 411.661C568.549 410.63 570.184 410.279 571.249 409.858C572.71 416.121 573.924 421.084 574.621 427.472Z"/><path fill="#193342" transform="scale(0.727273 0.727865)" d="M559.965 371.09L560.683 371.56C563.483 383.611 567.696 390.442 565.237 404.14C564.665 407.323 564.718 409.439 563.18 412.531L561.857 413.432C558.002 412.545 549.311 394.688 546.219 390.156C548.672 385.241 555.056 376.993 558.562 372.437L559.965 371.09Z"/><path fill="#193342" transform="scale(0.727273 0.727865)" d="M382.17 300.662C389.399 315.057 407.254 321.262 420.991 327.592C406.815 326.665 385.452 322.599 371.403 324.496C376.608 320.831 380.128 307.04 382.17 300.662Z"/><path fill="#193342" transform="scale(0.727273 0.727865)" d="M552.54 626.866C550.063 630.317 546.956 639.288 543.243 640.987C535.54 631.487 560.176 593.596 571.577 591.324C564.469 604.301 558.409 612.152 552.54 626.866Z"/><path fill="#F5F8F8" transform="scale(0.727273 0.727865)" d="M556.322 512.052C553.279 481.133 555.43 439.363 545.338 411.306C544.583 409.207 544.566 407.997 545.505 406.031L547.22 405.451L548.901 406.454C552.106 411.079 553.28 418.467 554.447 424.021C556.089 435.618 564.698 528.247 562.022 532.777C561.746 533.244 560.857 533.293 560.334 533.424L559.034 532.482C558.825 532.02 556.434 513.603 556.322 512.052Z"/><path fill="#193342" transform="scale(0.727273 0.727865)" d="M408.296 399.542L408.641 399.989C395.468 417.142 390.696 428.501 385.893 449.005L385.368 448.216C385.365 430.121 395.809 412.128 408.296 399.542Z"/><path fill="#203D4E" transform="scale(0.727273 0.727865)" d="M554.447 424.021L555.654 423.105C558.126 423.732 558.304 424.567 560.423 426.612L560.599 427.621C558.68 427.617 556.062 425.314 554.447 424.021Z"/><path fill="#BFD1D4" transform="scale(0.727273 0.727865)" d="M868.893 549.611C869.516 548.822 875.492 529.124 876.324 526.613L908.174 427.835C913.235 411.993 917.951 396.021 923.452 380.332C925.882 373.401 928.729 369.812 936.471 369.813C946.541 369.814 956.514 370.93 966.546 371.612L1016.94 375.002C1049.14 377.402 1085.8 378.965 1117.36 382.322C1127.09 385.92 1129.48 389.224 1126.37 400.375C1123.71 409.946 1119.62 419.481 1116.47 429.028L1093.57 499.3C1083.31 532.031 1072.62 564.628 1061.52 597.083C1056.79 611.366 1053.06 625.907 1047.57 640.017C1044.21 648.673 1037.27 645.62 1033.36 650.819C1035.92 652.425 1036.55 652.73 1038.44 655.074C1038.93 657.43 1039.08 656.512 1037.92 658.525C1031.11 663.22 1014.87 661.929 1005.95 662.66L1006.02 682.625L1005.99 713.659L855.937 713.778C843.879 713.724 831.912 715.432 819.893 714.209C807.862 712.985 795.711 714.497 783.757 714.288C769.47 714.037 755.336 713.351 741.016 714.185C733.519 714.569 725.434 713.224 717.928 714.247C705.64 714.527 692.419 714.283 680.056 714.286C673.064 712.85 642.511 713.996 634.57 714.494C632.467 704.059 634.427 688.435 634.319 676.434C636.014 674.933 645.268 672.855 647.951 672.144L691.465 660.722C701.932 657.956 714.499 655.112 724.194 650.502C729.751 647.859 732.764 644.254 736.854 639.817C743.073 637.515 754.663 634.93 761.379 633.238C763.667 632.619 766.597 632.067 768.963 631.552C772.561 629.286 772.99 627.282 774.202 623.4C774.951 618.988 774.829 613.524 774.888 608.983C773.416 597.781 770.245 587.817 762.385 579.382C761.338 578.704 758.724 577.027 757.639 576.995C748.175 576.72 734.16 579.573 724.691 581.056C722.203 578.865 717.659 576.212 714.659 574.005C708.479 569.462 704.723 565.38 699.525 559.736L699.294 557.229C704.529 554.72 745.525 554.757 753.044 554.484L828.437 551.441C840.096 551.016 857.469 548.598 868.893 549.611ZM724.691 581.056C734.16 579.573 748.175 576.72 757.639 576.995C758.724 577.027 761.338 578.704 762.385 579.382C770.245 587.817 773.416 597.781 774.888 608.983C774.829 613.524 774.951 618.988 774.202 623.4C772.99 627.282 772.561 629.286 768.963 631.552C769.903 632.616 771.055 634.076 772.15 634.883C776.83 639.29 790.052 653.344 794.97 653.43C814.875 653.777 844.465 651.446 863.844 650.48C901.102 648.794 938.35 646.876 975.585 644.727C987.376 643.964 999.173 643.288 1010.97 642.699C1015.95 642.448 1030.1 641.943 1034.26 640.92C1032.69 636.845 1023.97 633.176 1019.87 630.614C1013.45 626.601 1005.4 626.733 998.487 622.885C987.862 616.972 977.692 610.785 967.032 604.872C934.202 586.658 900.069 570.419 868.893 549.611C857.469 548.598 840.096 551.016 828.437 551.441L753.044 554.484C745.525 554.757 704.529 554.72 699.294 557.229L699.525 559.736C704.723 565.38 708.479 569.462 714.659 574.005C717.659 576.212 722.203 578.865 724.691 581.056Z"/><path fill="#92B0B5" transform="scale(0.727273 0.727865)" d="M736.854 639.817C743.073 637.515 754.663 634.93 761.379 633.238C768.877 640.764 787.687 662.11 795.976 663.484C809.789 665.775 838.558 663.161 853.302 662.358L921.693 659.068L991.437 655.963C1001.35 655.473 1025.53 655.898 1033.36 650.819C1035.92 652.425 1036.55 652.73 1038.44 655.074C1038.93 657.43 1039.08 656.512 1037.92 658.525C1031.11 663.22 1014.87 661.929 1005.95 662.66L1006.02 682.625L1005.99 713.659L855.937 713.778C843.879 713.724 831.912 715.432 819.893 714.209C807.862 712.985 795.711 714.497 783.757 714.288C769.47 714.037 755.336 713.351 741.016 714.185C733.519 714.569 725.434 713.224 717.928 714.247C705.64 714.527 692.419 714.283 680.056 714.286C673.064 712.85 642.511 713.996 634.57 714.494C632.467 704.059 634.427 688.435 634.319 676.434C636.014 674.933 645.268 672.855 647.951 672.144L691.465 660.722C701.932 657.956 714.499 655.112 724.194 650.502C729.751 647.859 732.764 644.254 736.854 639.817Z"/><path fill="#D1E0E1" transform="scale(0.727273 0.727865)" d="M651.725 681.013C675.719 675.621 701.276 668.432 724.904 661.534C730.988 659.757 735.214 655.556 739.435 654.171C746.838 651.74 755.41 650.052 763.323 647.621C788.387 675.311 783.251 673.701 821.271 671.896L861.426 669.944L1005.95 662.66L1006.02 682.625L832.631 682.648L773.499 682.702C764.745 682.707 752.012 683.099 743.516 682.631C736.188 681.946 725.365 682.166 717.696 682.14L672.615 682.143C668.227 682.147 654.943 682.824 651.725 681.013Z"/><path fill="#BFD1D4" transform="scale(0.727273 0.727865)" d="M743.516 682.631C722.86 683.446 700.163 682.304 679.303 682.748C674.855 682.843 651.07 683.007 647.796 682.378C648.497 681.315 650.104 681.352 651.725 681.013C654.943 682.824 668.227 682.147 672.615 682.143L717.696 682.14C725.365 682.166 736.188 681.946 743.516 682.631Z"/><path fill="#D1E0E1" transform="scale(0.727273 0.727865)" d="M699.294 557.229C704.529 554.72 745.525 554.757 753.044 554.484L828.437 551.441C840.096 551.016 857.469 548.598 868.893 549.611C900.069 570.419 934.202 586.658 967.032 604.872C977.692 610.785 987.862 616.972 998.487 622.885C1005.4 626.733 1013.45 626.601 1019.87 630.614C1023.97 633.176 1032.69 636.845 1034.26 640.92C1030.1 641.943 1015.95 642.448 1010.97 642.699C999.173 643.288 987.376 643.964 975.585 644.727C938.35 646.876 901.102 648.794 863.844 650.48C844.465 651.446 814.875 653.777 794.97 653.43C790.052 653.344 776.83 639.29 772.15 634.883C771.055 634.076 769.903 632.616 768.963 631.552C772.561 629.286 772.99 627.282 774.202 623.4C774.951 618.988 774.829 613.524 774.888 608.983C773.416 597.781 770.245 587.817 762.385 579.382C761.338 578.704 758.724 577.027 757.639 576.995C748.175 576.72 734.16 579.573 724.691 581.056C722.203 578.865 717.659 576.212 714.659 574.005C708.479 569.462 704.723 565.38 699.525 559.736L699.294 557.229ZM780.706 564.12L782.317 565.384C785.286 563.922 789.963 564.025 793.718 563.286L797.413 565.553L799.367 565.183C796.727 563.506 793.936 561.477 791.346 559.679L790.494 560.74L791.847 562.077C788.036 562.687 784.487 563.264 780.706 564.12Z"/><path fill="#506B78" fill-opacity="0.98823529" transform="scale(0.727273 0.727865)" d="M791.847 562.077L793.718 563.286C789.963 564.025 785.286 563.922 782.317 565.384L780.706 564.12C784.487 563.264 788.036 562.687 791.847 562.077Z"/><path fill="#BFD1D4" fill-opacity="0.98823529" transform="scale(0.727273 0.727865)" d="M791.346 559.679C793.936 561.477 796.727 563.506 799.367 565.183L797.413 565.553L793.718 563.286L791.847 562.077L790.494 560.74L791.346 559.679Z"/><path fill="#F6AC85" transform="scale(0.727273 0.727865)" d="M807.623 561.4L807.887 561.398L808.503 560.695L806.288 557.915C808.95 556.594 817.498 557.226 818.914 556.576C832.559 550.318 837.117 554.104 852.08 556.8L852.895 556.045C857.041 558.239 860.075 558.371 864.734 558.197C867.076 559.28 872.632 561.635 874.186 563.408C876.425 567.29 879.506 567.939 882.042 571.235C886.451 575.255 887.028 576.19 893.004 575.406L892.79 576.038L891.435 577.29L892.652 578.596L891.66 578.99C892.701 579.776 895.193 581.551 895.999 582.374L896.804 583.293C894.332 583.636 893.77 583.261 892.274 584.725C892.993 586.301 893.47 587.205 894.367 588.688L894.688 589.068L893.911 591.499L897.915 595.103C897.861 598.613 898.96 599.402 898.849 601.725L900.162 604.199L899.268 607.537C898.075 608.328 897.729 608.913 896.69 608.738C892.486 609.52 891.308 608.219 887.642 605.913C887.561 606.707 887.519 607.469 887.571 608.266L886.884 609.447C888.214 611.173 888.664 611.986 890.693 612.925L891.761 613.753C891.67 615.413 889.731 617.63 888.486 618.663C877.923 619.357 872.304 609.323 862.155 606.936L860.148 607.084C854.039 604.792 847.212 605.565 840.983 606.936C813.42 620.766 804.814 626 774.202 623.4C774.951 618.988 774.829 613.524 774.888 608.983C773.416 597.781 770.245 587.817 762.385 579.382C769.782 575.742 778.948 573.886 787.161 569.834L782.317 565.384C785.286 563.922 789.963 564.025 793.718 563.286L797.413 565.553L799.367 565.183C802.106 563.894 804.858 562.633 807.623 561.4Z"/><path fill="#D07963" transform="scale(0.727273 0.727865)" d="M774.888 608.983C781.437 610.654 788.19 612.675 794.877 612.356C816.769 611.312 829.459 597.905 852.07 602.12C862.602 604.083 866.794 604.461 876.465 611.307C879.358 613.355 887.154 617.073 888.486 618.663C877.923 619.357 872.304 609.323 862.155 606.936L860.148 607.084C854.039 604.792 847.212 605.565 840.983 606.936C813.42 620.766 804.814 626 774.202 623.4C774.951 618.988 774.829 613.524 774.888 608.983Z"/><path fill="#D07963" transform="scale(0.727273 0.727865)" d="M842.551 585.095C860.053 584.882 873.166 584.485 885.005 597.961C887.369 600.651 893.841 606.71 896.69 608.738C892.486 609.52 891.308 608.219 887.642 605.913C884.623 602.784 873.933 593.177 869.916 592.679C864.995 590.144 851.922 589.175 842.551 585.095Z"/><path fill="#D07963" transform="scale(0.727273 0.727865)" d="M841.864 570.891C843.225 570.767 844.589 570.696 845.955 570.675C853.596 570.603 864.781 571.268 872.021 573.234C881.025 575.679 887.469 585.213 893.911 591.499L897.915 595.103C897.861 598.613 898.96 599.402 898.849 601.725C875.896 566.807 874.588 580.602 841.864 570.891Z"/><path fill="#203D4E" transform="scale(0.727273 0.727865)" d="M782.317 565.384C785.286 563.922 789.963 564.025 793.718 563.286L797.413 565.553C795.271 566.477 789.086 569.312 787.161 569.834L782.317 565.384Z"/><path fill="#5A4D4C" transform="scale(0.727273 0.727865)" d="M869.916 592.679C873.933 593.177 884.623 602.784 887.642 605.913C887.561 606.707 887.519 607.469 887.571 608.266L886.884 609.447C882.036 601.993 877.014 597.709 869.916 592.679Z"/><path fill="#3D3F41" transform="scale(0.727273 0.727865)" d="M895.999 582.374C892.495 582.761 889.208 582.854 888.488 578.454L889.354 577.861L891.66 578.99C892.701 579.776 895.193 581.551 895.999 582.374Z"/><path fill="#D07963" transform="scale(0.727273 0.727865)" d="M837.087 559.221C843.388 558.499 869.291 562.79 873.815 566.451C870.457 566.334 840.105 560.706 837.087 559.221Z"/><path fill="#BFD1D4" transform="scale(0.727273 0.727865)" d="M891.66 578.99L892.652 578.596C898.23 581.684 898.569 581.5 905.004 580.903L904.962 581.393C908.068 582.019 912.324 584.456 914.911 586.305C915.758 586.876 916.338 587.343 917.315 587.671C919.599 588.714 922.865 589.818 924.074 591.821L922.744 592.835L922.766 593.275C927.725 593.22 930.127 594.072 934.132 597.029L934.615 598.225L935.305 598.918C939.469 598.811 943.178 601.781 946.568 604.136L946.906 605.37C951.416 605.888 955.205 608.657 959.026 611.118L960.492 612.748C963.693 612.972 969.606 616.906 972.605 618.755L973.197 619.899L976.138 620.317C979.005 621.954 984.635 624.835 986.526 627.277L987.599 628.614C984.817 629.02 982.479 629.298 979.678 629.524C981.392 630.679 985.357 633.18 986.803 634.357L986.082 635.625L986.096 635.935L985.228 636.64C978.876 637.042 970.617 638.25 965.417 635.032L964.53 636.354L964.547 637.297C958.921 638.544 951.104 639.281 945.96 636.637L944.725 637.999C941.959 635.236 929.415 627.132 925.897 625.489C925.116 625.06 923.983 624.054 923.245 623.447C920.704 621.583 917.166 618.825 914.117 618.406L913.55 617.274C911.374 615.677 907.613 613.183 905.008 612.681L904.335 611.582C903.079 610.06 900.926 608.714 899.268 607.537L900.162 604.199L898.849 601.725C898.96 599.402 897.861 598.613 897.915 595.103L893.911 591.499L894.688 589.068L894.367 588.688C893.47 587.205 892.993 586.301 892.274 584.725C893.77 583.261 894.332 583.636 896.804 583.293L895.999 582.374C895.193 581.551 892.701 579.776 891.66 578.99Z"/><path fill="#506B78" transform="scale(0.727273 0.727865)" d="M896.804 583.293C899.318 584.104 902.9 586.123 904.719 587.964C905.098 588.196 919.081 595.808 918.327 595.663C914.383 595.423 911.508 594.849 908.165 596.992L909.852 596.794C908.093 597.917 907.053 597.654 904.935 597.589C903.299 595.687 902.958 595.578 900.62 594.741L899.451 593.904C897.848 592.884 896.01 590.562 894.688 589.068L894.367 588.688C893.47 587.205 892.993 586.301 892.274 584.725C893.77 583.261 894.332 583.636 896.804 583.293Z"/><path fill="#203D4E" transform="scale(0.727273 0.727865)" d="M896.804 583.293C899.318 584.104 902.9 586.123 904.719 587.964C901.173 588.284 897.94 588.541 894.367 588.688C893.47 587.205 892.993 586.301 892.274 584.725C893.77 583.261 894.332 583.636 896.804 583.293Z"/><path fill="#203D4E" transform="scale(0.727273 0.727865)" d="M899.451 593.904C901.908 591.85 907.789 591.568 909.947 593.677C907.78 594.875 903.402 594.627 900.62 594.741L899.451 593.904Z"/><path fill="#203D4E" transform="scale(0.727273 0.727865)" d="M973.988 628.532C977.526 630.154 983.108 633.12 986.082 635.625L986.096 635.935L985.228 636.64C978.876 637.042 970.617 638.25 965.417 635.032C962.945 633.333 960.452 631.663 957.94 630.022L973.988 628.532Z"/><path fill="#203D4E" transform="scale(0.727273 0.727865)" d="M938.786 631.252C943.48 630.953 948.346 630.535 953.035 630.667C954.773 631.307 955.343 631.532 957.17 631.776C960.076 633.338 961.987 634.264 964.53 636.354L964.547 637.297C958.921 638.544 951.104 639.281 945.96 636.637L941.113 632.908C940.374 631.99 939.853 631.861 938.786 631.252Z"/><path fill="#68838D" transform="scale(0.727273 0.727865)" d="M938.786 631.252C943.48 630.953 948.346 630.535 953.035 630.667C954.773 631.307 955.343 631.532 957.17 631.776C951.868 631.915 946.278 631.863 941.113 632.908C940.374 631.99 939.853 631.861 938.786 631.252Z"/><path fill="#203D4E" transform="scale(0.727273 0.727865)" d="M929.893 625.321C934.875 624.919 940.02 624.322 945.007 623.805C947.614 625.322 951.68 627.467 953.744 629.479L953.035 630.667C948.346 630.535 943.48 630.953 938.786 631.252C934.66 629.157 933.401 628.142 929.893 625.321Z"/><path fill="#203D4E" transform="scale(0.727273 0.727865)" d="M965.779 621.04C969.357 620.907 972.589 620.637 976.138 620.317C979.005 621.954 984.635 624.835 986.526 627.277C984.353 627.636 979.2 627.772 976.795 627.903C972.316 625.519 969.939 623.967 965.779 621.04Z"/><path fill="#395560" transform="scale(0.727273 0.727865)" d="M918.327 595.663C921.504 597.2 923.293 598.21 926.261 600.12C921.749 600.528 915.816 601.209 911.412 601.21C909.737 600.232 906.595 598.291 904.935 597.589C907.053 597.654 908.093 597.917 909.852 596.794L908.165 596.992C911.508 594.849 914.383 595.423 918.327 595.663Z"/><path fill="#193342" transform="scale(0.727273 0.727865)" d="M960.492 612.748C963.693 612.972 969.606 616.906 972.605 618.755C970.151 619.805 965.168 619.617 962.303 619.676L953.099 613.652C955.569 613.396 958.033 613.095 960.492 612.748Z"/><path fill="#203D4E" transform="scale(0.727273 0.727865)" d="M946.906 605.37C951.416 605.888 955.205 608.657 959.026 611.118C956.941 612.142 952.846 612.127 950.335 612.273C948.033 611.057 943.711 609.207 942.535 607.19C943.713 605.542 944.39 605.907 946.906 605.37Z"/><path fill="#395560" transform="scale(0.727273 0.727865)" d="M897.915 595.103C902.735 597.791 908.557 600.873 913.196 603.808C909.44 603.908 903.76 603.887 900.162 604.199L898.849 601.725C898.96 599.402 897.861 598.613 897.915 595.103Z"/><path fill="#203D4E" transform="scale(0.727273 0.727865)" d="M935.305 598.918C939.469 598.811 943.178 601.781 946.568 604.136C943.883 605.158 940.627 605.022 937.712 605.085C935.655 603.968 932.955 602.737 931.486 601L932.052 599.894L935.305 598.918Z"/><path fill="#395560" transform="scale(0.727273 0.727865)" d="M922.766 593.275C927.725 593.22 930.127 594.072 934.132 597.029L934.615 598.225C930.533 599.104 923.077 598.557 921.126 594.421L922.766 593.275Z"/><path fill="#203D4E" transform="scale(0.727273 0.727865)" d="M917.315 587.671C919.599 588.714 922.865 589.818 924.074 591.821L922.744 592.835C919.301 592.934 912.79 592.017 911.182 588.673C913.355 587.345 914.388 587.785 917.315 587.671Z"/><path fill="#193342" transform="scale(0.727273 0.727865)" d="M904.962 581.393C908.068 582.019 912.324 584.456 914.911 586.305L907.433 587.225C905.359 586.198 902.771 585.128 901.224 583.478L901.582 582.461L904.962 581.393Z"/><path fill="#203D4E" transform="scale(0.727273 0.727865)" d="M956.844 621.149C962.654 620.137 967.57 624.293 972.787 627.512C969.444 627.699 966.108 628.088 962.777 628.441C954.134 628.619 953.036 626.994 945.695 622.035L956.844 621.149Z"/><path fill="#203D4E" transform="scale(0.727273 0.727865)" d="M930.025 617.727C935.753 616.544 939.177 619.667 943.994 622.69C939.893 623.255 935.838 623.57 931.717 623.923C927.534 625.561 921.572 620.44 918.357 618.076L930.025 617.727Z"/><path fill="#203D4E" transform="scale(0.727273 0.727865)" d="M919.712 610.821C923.674 609.807 929.41 613.863 933.474 616.039C929.866 616.451 926.248 616.693 922.626 616.963C914.96 617.305 915.28 616.675 908.568 612.099C912.189 611.311 916.009 611.116 919.712 610.821Z"/><path fill="#203D4E" transform="scale(0.727273 0.727865)" d="M945.356 614.294C950.556 613.211 955.123 616.839 959.839 619.526C956.231 620.024 951.911 620.248 948.229 620.533C943.095 621.6 938.897 617.894 934.83 615.184L945.356 614.294Z"/><path fill="#203D4E" transform="scale(0.727273 0.727865)" d="M926.586 601.186C929.195 601.005 934.509 604.771 936.864 606.265C932.565 606.85 927.822 607.264 923.473 607.727C921.709 607.548 914.451 603.549 912.387 602.481C917.319 601.752 921.611 601.499 926.586 601.186Z"/><path fill="#203D4E" transform="scale(0.727273 0.727865)" d="M932.782 608.084C939.483 606.456 942.205 609.241 947.546 612.711C945.128 613.135 942.189 613.24 939.696 613.398C932.531 614.52 930.334 612.751 924.18 609.194C926.82 608.665 930.056 608.388 932.782 608.084Z"/><path fill="#203D4E" transform="scale(0.727273 0.727865)" d="M911.462 604.656C915.031 604.244 919.211 607.807 922.428 609.946C918.307 609.955 913.868 610.144 909.725 610.252C907.291 610.693 902.764 609.442 901.499 607.16L902.058 605.937C904.628 604.386 908.363 604.699 911.462 604.656Z"/><path fill="#92B0B5" transform="scale(0.727273 0.727865)" d="M840.983 606.936C847.212 605.565 854.039 604.792 860.148 607.084L862.155 606.936C865.481 612.193 872.824 614.986 877.846 619.07L876.146 620.604L871.265 621.496L871.64 622.596C868.271 622.389 864.673 622.847 861.292 623.166L865.856 627.01C844.856 627.544 828.088 628.993 807.492 632.622C797.057 634.46 782.978 631.997 772.15 634.883C771.055 634.076 769.903 632.616 768.963 631.552C772.561 629.286 772.99 627.282 774.202 623.4C804.814 626 813.42 620.766 840.983 606.936Z"/><path fill="#193342" transform="scale(0.727273 0.727865)" d="M840.983 606.936C847.212 605.565 854.039 604.792 860.148 607.084L862.155 606.936C865.481 612.193 872.824 614.986 877.846 619.07L876.146 620.604L871.265 621.496L871.64 622.596C868.271 622.389 864.673 622.847 861.292 623.166L860.288 621.552C857.689 621.46 855.278 618.779 853.268 616.979L852.233 615.36C849.633 614.894 843.229 608.887 840.983 606.936Z"/><path fill="#203D4E" transform="scale(0.727273 0.727865)" d="M869.967 615.619C872.232 616.718 874.505 617.514 875.901 619.556L876.146 620.604L871.265 621.496L871.64 622.596C868.271 622.389 864.673 622.847 861.292 623.166L860.288 621.552C857.689 621.46 855.278 618.779 853.268 616.979C855.59 615.576 866.358 615.738 869.967 615.619Z"/><path fill="#506B78" transform="scale(0.727273 0.727865)" d="M860.288 621.552L871.265 621.496L871.64 622.596C868.271 622.389 864.673 622.847 861.292 623.166L860.288 621.552Z"/><path fill="#718E97" transform="scale(0.727273 0.727865)" d="M860.148 607.084L862.155 606.936C865.481 612.193 872.824 614.986 877.846 619.07L876.146 620.604L875.901 619.556C874.505 617.514 872.232 616.718 869.967 615.619C866.358 615.738 855.59 615.576 853.268 616.979L852.233 615.36C855.198 614.743 864.423 614.392 868.027 614.13C865.067 612.025 862.736 609.61 860.148 607.084Z"/><path fill="#68838D" transform="scale(0.727273 0.727865)" d="M886.884 609.447L887.571 608.266C887.519 607.469 887.561 606.707 887.642 605.913C891.308 608.219 892.486 609.52 896.69 608.738C897.729 608.913 898.075 608.328 899.268 607.537C900.926 608.714 903.079 610.06 904.335 611.582L905.008 612.681C907.613 613.183 911.374 615.677 913.55 617.274L914.117 618.406C917.166 618.825 920.704 621.583 923.245 623.447C923.983 624.054 925.116 625.06 925.897 625.489C929.415 627.132 941.959 635.236 944.725 637.999C941.355 639.732 928.167 640.54 924.897 637.755L923.88 638.852C916.191 632.902 906.313 626.609 898.122 621.406C894.629 621.654 886.786 621.907 883.926 623.192C882.418 621.982 879.82 620.58 877.846 619.07C872.824 614.986 865.481 612.193 862.155 606.936C872.304 609.323 877.923 619.357 888.486 618.663C889.731 617.63 891.67 615.413 891.761 613.753L890.693 612.925C888.664 611.986 888.214 611.173 886.884 609.447Z"/><path fill="#203D4E" transform="scale(0.727273 0.727865)" d="M914.117 618.406C917.166 618.825 920.704 621.583 923.245 623.447C923.983 624.054 925.116 625.06 925.897 625.489C929.415 627.132 941.959 635.236 944.725 637.999C941.355 639.732 928.167 640.54 924.897 637.755C923.135 635.768 913.194 628.982 910.453 627.067L908.36 625.21C904.921 623.575 903.722 622.703 900.62 620.429C902.255 619.804 910.878 619.088 914.117 618.406Z"/><path fill="#203D4E" transform="scale(0.727273 0.727865)" d="M914.117 618.406C917.166 618.825 920.704 621.583 923.245 623.447C918.147 625.607 913.194 624.582 908.36 625.21C904.921 623.575 903.722 622.703 900.62 620.429C902.255 619.804 910.878 619.088 914.117 618.406Z"/><path fill="#506B78" transform="scale(0.727273 0.727865)" d="M923.245 623.447C923.983 624.054 925.116 625.06 925.897 625.489C923.14 625.653 912.554 626.063 910.453 627.067L908.36 625.21C913.194 624.582 918.147 625.607 923.245 623.447Z"/><path fill="#203D4E" transform="scale(0.727273 0.727865)" d="M905.008 612.681C907.613 613.183 911.374 615.677 913.55 617.274L914.117 618.406C910.878 619.088 902.255 619.804 900.62 620.429L898.978 618.832C897.323 618.172 893.598 615.505 891.928 614.376C896.448 613.521 900.474 613.74 905.008 612.681Z"/><path fill="#506B78" transform="scale(0.727273 0.727865)" d="M913.55 617.274L914.117 618.406C910.878 619.088 902.255 619.804 900.62 620.429L898.978 618.832C902.243 618.631 910.998 618.374 913.55 617.274Z"/><path fill="#203D4E" transform="scale(0.727273 0.727865)" d="M886.884 609.447L887.571 608.266C887.519 607.469 887.561 606.707 887.642 605.913C891.308 608.219 892.486 609.52 896.69 608.738C897.729 608.913 898.075 608.328 899.268 607.537C900.926 608.714 903.079 610.06 904.335 611.582C901.936 611.755 892.478 612.339 890.693 612.925C888.664 611.986 888.214 611.173 886.884 609.447Z"/><path fill="#203D4E" transform="scale(0.727273 0.727865)" d="M883.926 623.192C886.786 621.907 894.629 621.654 898.122 621.406C906.313 626.609 916.191 632.902 923.88 638.852C922.28 640.57 910.498 640.565 907.363 640.715C902.619 636.919 898.942 634.179 893.911 630.781C890.544 628.392 887.2 625.725 883.926 623.192Z"/><path fill="#D1E0E1" transform="scale(0.727273 0.727865)" d="M877.846 619.07C879.82 620.58 882.418 621.982 883.926 623.192C887.2 625.725 890.544 628.392 893.911 630.781L893.266 632.327L893.161 633.378L891.105 634.075C888.227 634.157 886.948 633.765 884.161 633.117C881.25 631.86 880.678 631.153 878.419 628.893C876.165 627.921 872.338 628.879 870.048 629.388L870.378 628.167C868.43 627.97 867.649 627.63 865.856 627.01L861.292 623.166C864.673 622.847 868.271 622.389 871.64 622.596L871.265 621.496L876.146 620.604L877.846 619.07Z"/><path fill="#203D4E" transform="scale(0.727273 0.727865)" d="M878.419 628.893C886.043 626.677 887.115 627.526 893.266 632.327L893.161 633.378L891.105 634.075C888.227 634.157 886.948 633.765 884.161 633.117C881.25 631.86 880.678 631.153 878.419 628.893Z"/><path fill="#203D4E" transform="scale(0.727273 0.727865)" d="M861.292 623.166C864.673 622.847 868.271 622.389 871.64 622.596C873.751 624.191 874.386 624.153 875.363 626.336C874.032 627.879 872.617 627.97 870.378 628.167C868.43 627.97 867.649 627.63 865.856 627.01L861.292 623.166Z"/><path fill="#203D4E" transform="scale(0.727273 0.727865)" d="M987.599 628.614C992.031 628.465 998.279 633.169 1002.04 635.654C996.233 636.092 991.661 637.24 986.803 634.357C985.357 633.18 981.392 630.679 979.678 629.524C982.479 629.298 984.817 629.02 987.599 628.614Z"/><path fill="#203D4E" transform="scale(0.727273 0.727865)" d="M884.161 633.117C886.948 633.765 888.227 634.157 891.105 634.075L887.317 635.038C889.586 637.062 891.911 639.069 894.013 641.261L884.413 641.496C882.27 639.955 879.558 638.306 878.278 636.077L878.086 634.645C880.763 634.208 881.605 634.044 884.161 633.117Z"/><path fill="#92B0B5" transform="scale(0.727273 0.727865)" d="M884.161 633.117C886.948 633.765 888.227 634.157 891.105 634.075L887.317 635.038C885.049 635.233 880.27 635.503 878.278 636.077L878.086 634.645C880.763 634.208 881.605 634.044 884.161 633.117Z"/><path fill="#203D4E" transform="scale(0.727273 0.727865)" d="M791.346 559.679C793.709 556.731 799.13 557.576 802.886 557.584L807.623 561.4C804.858 562.633 802.106 563.894 799.367 565.183C796.727 563.506 793.936 561.477 791.346 559.679Z"/><path fill="#193342" transform="scale(0.727273 0.727865)" d="M773.799 558.628C780.268 558.257 785.698 556.822 790.494 560.74L791.847 562.077C788.036 562.687 784.487 563.264 780.706 564.12C778.462 562.682 775.891 560.388 773.799 558.628Z"/><path fill="#193342" transform="scale(0.727273 0.727865)" d="M870.048 629.388C872.338 628.879 876.165 627.921 878.419 628.893C880.678 631.153 881.25 631.86 884.161 633.117C881.605 634.044 880.763 634.208 878.086 634.645C874.537 634.712 872.071 631.93 870.048 629.388Z"/><path fill="#193342" transform="scale(0.727273 0.727865)" d="M892.79 576.038C897.114 575.354 902.204 577.687 905.004 580.903C898.569 581.5 898.23 581.684 892.652 578.596L891.435 577.29L892.79 576.038Z"/><path fill="#203D4E" transform="scale(0.727273 0.727865)" d="M886.033 570.716C888.621 571.174 891.772 572.409 893.261 574.69L893.004 575.406C887.028 576.19 886.451 575.255 882.042 571.235L886.033 570.716Z"/><path fill="#3D3F41" transform="scale(0.727273 0.727865)" d="M874.186 563.408C879.05 565.42 882.193 566.876 886.033 570.716L882.042 571.235C879.506 567.939 876.425 567.29 874.186 563.408Z"/><path fill="#193342" transform="scale(0.727273 0.727865)" d="M852.895 556.045C857.774 555.106 860.538 555.17 864.734 558.197C860.075 558.371 857.041 558.239 852.895 556.045Z"/><path fill="#718E97" transform="scale(0.727273 0.727865)" d="M1117.36 382.322C1127.09 385.92 1129.48 389.224 1126.37 400.375C1123.71 409.946 1119.62 419.481 1116.47 429.028L1093.57 499.3C1083.31 532.031 1072.62 564.628 1061.52 597.083C1056.79 611.366 1053.06 625.907 1047.57 640.017C1044.21 648.673 1037.27 645.62 1033.36 650.819C1025.53 655.898 1001.35 655.473 991.437 655.963L921.693 659.068L853.302 662.358C838.558 663.161 809.789 665.775 795.976 663.484C787.687 662.11 768.877 640.764 761.379 633.238C763.667 632.619 766.597 632.067 768.963 631.552C769.903 632.616 771.055 634.076 772.15 634.883C776.83 639.29 790.052 653.344 794.97 653.43C814.875 653.777 844.465 651.446 863.844 650.48C901.102 648.794 938.35 646.876 975.585 644.727C987.376 643.964 999.173 643.288 1010.97 642.699C1015.95 642.448 1030.1 641.943 1034.26 640.92C1038.74 641.017 1040.07 639.487 1041.6 635.445C1048.46 617.263 1054.06 598.485 1060.05 579.978L1090.66 486.015L1110.3 425.749C1113.75 415.231 1117.65 404.087 1120.52 393.389C1121.73 388.844 1119.72 385.955 1117.36 382.322Z"/><path fill="#203D4E" transform="scale(0.727273 0.727865)" d="M985.552 646.548C990.05 646.22 998.133 644.706 1000.38 649.216C999.649 650.925 999.558 651.195 998.119 652.351C993.939 652.42 987.549 653.772 984.214 651.801C983.207 649.596 983.426 650.54 983.944 647.66L985.552 646.548Z"/><path fill="#193342" transform="scale(0.727273 0.727865)" d="M969.912 648.677L972.128 648.673C973.72 650.058 973.493 649.434 973.616 651.085C971.497 652.807 955.271 653.032 951.336 653.335C949.124 653.184 949.136 653.585 948.037 652.402L948.206 651.053C950.894 648.853 965.781 648.862 969.912 648.677Z"/><path fill="#193342" transform="scale(0.727273 0.727865)" d="M1011.15 645.971C1012.01 645.436 1013.1 645.425 1013.98 645.941C1014.85 646.458 1015.37 647.418 1015.32 648.433C1015.27 649.448 1014.66 650.352 1013.73 650.778C1012.42 651.385 1010.86 650.865 1010.18 649.592C1009.49 648.319 1009.92 646.732 1011.15 645.971Z"/><path fill="#193342" transform="scale(0.727273 0.727865)" d="M929.965 380.576C946.386 381.078 973.876 384.459 990.986 385.998L1110.93 396.861C1106.3 412.49 1100.41 428.222 1095.6 443.825C1078.98 497.823 1059.29 552.203 1043.15 606.242C1041.17 612.219 1039.53 617.282 1036.98 623.027C1022 614.615 1004.03 606.287 988.504 598.579L912.75 560.66C901.145 554.867 888.173 548.87 876.965 542.581L910.6 439.132C916.661 420.419 923.091 398.675 929.965 380.576Z"/><path fill="#6C9976" transform="scale(0.727273 0.727865)" d="M987.428 476.115C993.877 477.914 1048.77 491.486 1050.14 493.219L1049.5 496.219C1045.74 496.627 994.963 482.344 988.231 480.257C986.879 478.753 987.346 478.645 987.428 476.115Z"/><path fill="#6C9976" transform="scale(0.727273 0.727865)" d="M965.387 421.465C971.936 422.595 1015.92 428.877 1018.03 430.732L1018.18 434.137C1001.45 430.622 982.441 429.138 966.002 425.449C964.989 424.145 965.365 423.448 965.387 421.465Z"/><path fill="#6C9976" transform="scale(0.727273 0.727865)" d="M913.906 527.147C919.306 528.748 958.157 544.657 960.96 547.227L960.966 550.326C952.099 547.787 924.155 534.981 914.313 530.552C913.454 530.165 913.84 528.269 913.906 527.147Z"/><path fill="#6C9976" transform="scale(0.727273 0.727865)" d="M967.344 481.064C972.44 481.206 999.99 489.165 1006.45 491.558C1007.44 491.927 1007.32 494.233 1007.43 495.582C1003.54 495.044 969.665 485.308 967.759 483.91L967.344 481.064Z"/><path fill="#6C9976" transform="scale(0.727273 0.727865)" d="M937.574 527.335C947.338 530.886 963.701 536.248 972.78 541.552C973.686 542.081 973.437 543.531 973.504 544.886C969.18 544.174 942.65 533.338 937.555 530.623C936.937 530.294 937.429 528.402 937.574 527.335Z"/><path fill="#92B0B5" transform="scale(0.727273 0.727865)" d="M950.514 402.799C955.31 402.7 988.386 406.589 991.166 408.361L991.513 411.239C985.425 410.369 954.041 407.104 951.057 405.601L950.514 402.799Z"/><path fill="#718E97" transform="scale(0.727273 0.727865)" d="M966.002 396.082C970.176 395.626 999.215 398.857 1004.83 400.453C1005.44 400.627 1005.53 402.498 1005.7 403.493C999.939 403.855 974.62 400.379 967.747 399.046C966.481 398.801 966.398 397.383 966.002 396.082Z"/><path fill="#68838D" transform="scale(0.727273 0.727865)" d="M941.617 464.523C953.253 467.48 965.191 470.052 976.683 473.382C978.001 474.894 977.58 475.136 977.65 477.534C973.242 476.831 943.915 469.284 941.846 467.569L941.617 464.523Z"/><path fill="#D07963" transform="scale(0.727273 0.727865)" d="M995.526 454.278C1005.09 456.435 1018.1 458.567 1027.04 461.246C1028.08 462.885 1027.62 462.999 1027.23 465.347C1018.89 463.299 1003.45 460.987 996.312 458.563C995.158 457.114 995.552 456.481 995.526 454.278Z"/><path fill="#92B0B5" transform="scale(0.727273 0.727865)" d="M924.133 495.019C927.768 495.763 954 504.154 956.284 505.998L956.495 509.144C951.761 507.973 926.623 500.215 924.026 497.373L924.133 495.019Z"/><path fill="#D07963" transform="scale(0.727273 0.727865)" d="M962.978 489.227C967.477 489.76 986.416 495.142 990.614 497.978C991.45 498.543 991.233 500.156 991.292 501.452C983.859 499.145 970.722 496.279 963.672 492.47C962.831 492.016 963.046 490.481 962.978 489.227Z"/><path fill="#718E97" transform="scale(0.727273 0.727865)" d="M948.232 411.229C951.259 410.753 975.664 413.915 979.751 415.875C980.672 416.317 980.587 417.332 980.861 418.597C976.023 418.758 955.063 415.591 949.455 413.842C948.619 413.581 948.548 412.344 948.232 411.229Z"/><path fill="#718E97" transform="scale(0.727273 0.727865)" d="M1029.59 421.89C1037.7 422.988 1047.77 424.086 1055.63 425.758C1056.81 427.032 1056.39 427.816 1056.39 429.991C1049.76 428.615 1037.25 427.523 1030.48 425.631C1029.89 425.465 1029.74 422.911 1029.59 421.89Z"/><path fill="#68838D" transform="scale(0.727273 0.727865)" d="M966.824 448.898C970.285 448.898 989.816 452.663 992.605 454.864L992.854 457.51C989.903 457.907 972.232 453.836 967.93 452.701C967.039 452.466 966.992 450.115 966.824 448.898Z"/><path fill="#D07963" transform="scale(0.727273 0.727865)" d="M941.353 434.87C946.336 436.281 965.745 438.471 968.448 441.456L968.212 443.87C963.158 442.834 943.801 440.083 940.971 437.444L941.353 434.87Z"/><path fill="#868C7A" transform="scale(0.727273 0.727865)" d="M905.09 541.688C910.11 543.242 924.977 549.263 929.087 552.927C929.445 553.246 929.121 555.422 929.063 556.161C918.976 551.781 914.362 550.241 905.212 544.042L905.09 541.688Z"/><path fill="#D07963" transform="scale(0.727273 0.727865)" d="M994.189 549.573C997.809 550.339 1008.17 553.922 1011.22 556.552C1012.41 557.576 1012.01 559.107 1011.99 560.875C1007.4 559.687 998.661 556.972 994.916 553.847C993.795 552.912 994.172 551.231 994.189 549.573Z"/><path fill="#68838D" transform="scale(0.727273 0.727865)" d="M936.74 481.234C940.894 481.707 958.216 486.441 960.352 489.182L959.849 491.506C955.409 490.441 939.323 486.316 936.684 483.592L936.74 481.234Z"/><path fill="#6C9976" transform="scale(0.727273 0.727865)" d="M985.206 415.714C990.163 416.542 1005.47 417.479 1008.18 420.08L1008.14 422.98C1003.65 422.364 990.15 421.209 985.798 418.929C985.087 418.557 985.262 416.836 985.206 415.714Z"/><path fill="#68838D" transform="scale(0.727273 0.727865)" d="M938.514 443.559C942.391 443.219 958.547 446.47 962.475 448.507C963.344 448.958 963.189 450.028 963.354 451.282C959.984 452.033 944.531 447.933 940.401 446.514C938.828 445.973 938.978 445.16 938.514 443.559Z"/><path fill="#68838D" transform="scale(0.727273 0.727865)" d="M926.802 487.295C927.294 487.309 927.784 487.345 928.273 487.403C930.881 487.702 947.251 492.351 949.893 494.836C950.465 495.375 949.967 496.668 949.769 497.727C943.558 495.807 932.845 493.094 927.267 489.751C926.852 489.503 926.873 488.009 926.802 487.295Z"/><path fill="#718E97" transform="scale(0.727273 0.727865)" d="M977.53 436.351C972.858 435.629 956.321 433.876 954.451 430.309L955.722 429.283C960.828 429.304 972.438 431.836 978.095 432.898L977.53 436.351Z"/><path fill="#92B0B5" transform="scale(0.727273 0.727865)" d="M920.838 539.557C925.787 540.763 937.412 545.618 941.86 548.818C942.702 549.423 942.431 550.921 942.452 552.249C936.316 549.713 926.653 546.458 921.417 542.461C920.509 541.769 920.825 540.936 920.838 539.557Z"/><path fill="#D07963" transform="scale(0.727273 0.727865)" d="M911.773 499.01C916.345 500.605 927.898 503.706 930.472 507.073L930.056 509.862C924.787 507.538 913.698 505.129 911.193 501.581L911.773 499.01Z"/><path fill="#6C9976" transform="scale(0.727273 0.727865)" d="M1061.65 426.265C1066.21 427.249 1076 426.686 1078.66 430.011L1078.32 432.962C1073.32 432.191 1064.03 432.467 1061.19 429.083L1061.65 426.265Z"/><path fill="#D07963" transform="scale(0.727273 0.727865)" d="M942.646 393.121C947.282 393.671 960.127 393.983 962.881 396.476L962.751 398.845C957.566 398.02 945.415 398.155 942.36 395.626L942.646 393.121Z"/><path fill="#718E97" transform="scale(0.727273 0.727865)" d="M916.632 519.105C921.047 520.613 929.804 523.206 933.557 525.976C934.589 526.737 934.048 528.22 933.869 529.612C929.299 527.947 921.069 525.319 917.171 522.48C916.161 521.744 916.554 520.439 916.632 519.105Z"/><path fill="#6C9976" transform="scale(0.727273 0.727865)" d="M978.095 432.898C982.632 433.627 993.311 434.792 996.206 437.793C993.323 440.269 981.248 437.135 977.53 436.351L978.095 432.898Z"/><path fill="#68838D" transform="scale(0.727273 0.727865)" d="M930.793 470.796C935.307 471.547 943.949 473.203 947.889 475.683C948.857 476.292 948.633 477.305 948.803 478.785C945.004 478.291 934.244 476.001 931.163 473.552C930.723 473.202 930.833 471.603 930.793 470.796Z"/><path fill="#D07963" transform="scale(0.727273 0.727865)" d="M909.396 507.558C912.834 508.453 922.757 511.826 924.981 514.342L924.605 516.651C920.984 515.803 910.012 512.58 908.574 509.544L909.396 507.558Z"/><path fill="#D07963" transform="scale(0.727273 0.727865)" d="M924.888 452.426C927.877 452.159 938.066 454.54 941 456.118C941.996 456.653 941.816 457.406 942.089 458.803C938.79 459.585 929.917 457.044 926.662 455.523C925.093 454.79 925.342 454.21 924.888 452.426Z"/><path fill="#6C9976" transform="scale(0.727273 0.727865)" d="M976.432 542.766C980.167 543.948 986.072 545.498 989.106 547.951C990.368 548.971 990.041 550.043 990.117 551.826C986.957 551.239 979.721 548.969 977.393 546.74C976.04 545.444 976.447 544.78 976.432 542.766Z"/><path fill="#6C9976" transform="scale(0.727273 0.727865)" d="M1012.16 419.243C1016.96 420.435 1022.35 419.377 1025.65 422.519L1025.54 425.199C1021.49 424.766 1014.1 425.151 1011.65 421.92L1012.16 419.243Z"/><path fill="#68838D" transform="scale(0.727273 0.727865)" d="M946.691 418.875C950.18 419.466 958.448 419.722 961.453 421.736C962.083 422.158 961.799 423.581 961.775 424.641C958.004 424.102 948.658 423.951 946.423 421.213L946.691 418.875Z"/><path fill="#9F8775" transform="scale(0.727273 0.727865)" d="M955.21 477.108C958.319 477.844 963.575 478.786 965.988 480.742C966.906 481.487 966.621 482.626 966.667 484.101C963.532 483.366 956.939 482.265 955.104 479.81C954.76 479.35 955.116 477.891 955.21 477.108Z"/><path fill="#D07963" transform="scale(0.727273 0.727865)" d="M959.334 506.662C964.313 508.044 968.279 507.813 968.728 513.22C963.482 512.074 959.041 512.439 959.334 506.662Z"/><path fill="#D07963" transform="scale(0.727273 0.727865)" d="M939.911 401.672C943.76 401.277 947.764 400.836 948.831 404.943C945.284 406.24 940.842 405.987 939.911 401.672Z"/><path fill="#718E97" transform="scale(0.727273 0.727865)" d="M911.058 535.336C914.402 536.026 916.105 536.085 918.179 538.61L917.871 541.074C914.065 540.961 911.288 539.202 911.058 535.336Z"/><path fill="#718E97" transform="scale(0.727273 0.727865)" d="M943.456 426.89C948.237 427.44 950.166 426.458 951.203 431.352C948.644 431.223 947.372 431.218 944.87 430.591C943.127 428.971 943.594 429.865 943.456 426.89Z"/><path fill="#718E97" transform="scale(0.727273 0.727865)" d="M933.089 462.668C937.207 463.33 938.806 462.778 939.734 466.897C939.414 466.918 939.093 466.932 938.772 466.94C935.894 467.013 934.895 466.876 933.054 465.129L933.089 462.668Z"/><path fill="#193342" transform="scale(0.727273 0.727865)" d="M490.852 283.698C490.332 282.322 489.864 280.926 489.449 279.515C487.149 271.655 486.135 260.163 484.311 251.546C476.895 216.512 471.672 177.721 488.454 144.434C496.04 129.385 506.059 127.604 516.431 119.279C546.11 95.4559 567.907 93.0018 602.895 107.043C613.78 111.593 623.894 116.838 635.395 119.489C647.193 122.209 655.416 123.998 667.122 119.407C668.452 118.885 669.847 118.808 671.089 119.574C672.9 123.859 669.339 128.835 668.53 133.979L670.399 135.051C677.077 135.382 680.742 123.566 686.626 128.064C694.836 134.339 694.721 146.811 693.328 156.161C690.977 171.935 680.978 182.036 665.312 184.622C667.816 195.966 672.121 235.332 664.393 243.797L663.792 246.938C665.465 249.008 667.846 249.871 670.523 250.137C674.648 257.501 665.084 270.622 662.469 277.97C661.1 289.735 673.83 297.342 657.342 305.056L655.535 305.392C647.723 309.563 652.103 311.501 646.186 318.794C642.761 324.462 640.458 329.132 637.554 335.113L637.477 335.836C636.181 348.701 640.384 359.619 628.661 370.223C623.919 374.513 616.871 375.22 610.698 374.706C596.591 373.531 584.39 364.462 572.173 357.382C566.57 362.193 564.351 365.094 559.965 371.09L558.562 372.437C555.056 376.993 548.672 385.241 546.219 390.156C525.872 362.079 502.143 336.032 472.428 317.591C476.968 310.272 481.724 302.639 485.262 294.808L486.692 291.283L490.852 283.698Z"/><path fill="#F6AC85" transform="scale(0.727273 0.727865)" d="M519.432 257.73C515.354 247.07 513.614 235.09 518.235 224.473C522.454 214.778 530.781 209.523 540.84 214.211C549.411 218.206 549.289 224.694 555.158 230.441C561.275 260.155 540.811 278.926 538.286 303.741C539.51 329.607 553.864 340.297 572.173 357.382C566.57 362.193 564.351 365.094 559.965 371.09L558.562 372.437C555.056 376.993 548.672 385.241 546.219 390.156C525.872 362.079 502.143 336.032 472.428 317.591C476.968 310.272 481.724 302.639 485.262 294.808L486.692 291.283L490.852 283.698C492.537 283.132 494.216 282.55 495.89 281.953C509.247 277.158 512.258 273.197 517.982 261.088L519.432 257.73Z"/><path fill="#D07963" transform="scale(0.727273 0.727865)" d="M558.562 372.437C554.792 369.77 553.434 368.369 550.918 364.474C543.495 352.986 531.934 315.676 538.286 303.741C539.51 329.607 553.864 340.297 572.173 357.382C566.57 362.193 564.351 365.094 559.965 371.09L558.562 372.437Z"/><path fill="#D07963" transform="scale(0.727273 0.727865)" d="M519.432 257.73C523.479 263.777 527.358 269.525 534.536 272.087C536.811 271.898 539.079 271.626 541.335 271.272C543.576 280.138 519.398 280.49 517.982 261.088L519.432 257.73Z"/><path fill="#D07963" transform="scale(0.727273 0.727865)" d="M533.016 220.154C533.31 220.156 533.604 220.166 533.897 220.182C545.479 220.875 545.622 229.82 545.111 239L540.415 246.521C541.469 249.688 544.222 254.995 540.433 256.719C536.791 256.021 531.49 250.546 529.188 247.729C531.922 234.396 537.157 239.454 539.25 234.634C538.764 231.588 538.718 230.438 537.134 227.824C530.913 223.533 527.085 232.272 523.227 232.132C522.809 225.512 527.275 221.811 533.016 220.154Z"/><path fill="#F6AC85" transform="scale(0.727273 0.727865)" d="M574.362 232.532C578.299 233.74 582.278 235.045 586.207 236.297C586.706 237.281 586.958 238.315 587.886 238.832C596.277 243.513 605.323 246.875 613.996 250.991C620.973 254.301 624.325 260.405 632.304 260.976C630.149 267.623 625.177 283.24 635.222 285.928C644.231 288.339 649.938 277.13 653.224 270.705C654.541 268.13 656.25 263.892 658.322 262.08C659.696 262.742 659.33 262.776 660.148 264.61C660.007 268.766 659.981 274.387 662.469 277.97C661.1 289.735 673.83 297.342 657.342 305.056L655.535 305.392C653.876 305.236 652.079 304.901 650.421 304.631C640.803 304.364 625.871 304.094 617.026 309.243C614.104 311.528 610.259 316.351 607.329 318.22C600.397 322.414 597.556 305.932 594.384 303.411C567.068 281.696 563.299 267.308 574.362 232.532Z"/><path fill="#D07963" transform="scale(0.727273 0.727865)" d="M650.421 304.631C645.363 301.091 641.105 306.231 636.772 299.751C636.244 297.489 636.095 297.109 636.898 294.96L637.933 294.421C639.415 295.162 639.434 295.522 640.221 297.096C645.086 300.655 654.501 296.304 657.342 305.056L655.535 305.392C653.876 305.236 652.079 304.901 650.421 304.631Z"/><path fill="#F6AC85" transform="scale(0.727273 0.727865)" d="M603.37 204.794C603.501 198.234 600.936 188.605 602.705 182.638C609.266 160.519 639.071 175.427 652.557 180.893C656.748 182.591 661.177 183.591 665.312 184.622C667.816 195.966 672.121 235.332 664.393 243.797C660.398 247.353 663.103 246.275 661.09 248.392C659.459 246.04 658.32 244.669 657.518 241.909L657.911 241.469C659.989 239.155 659.917 239.928 660.524 236.581C657.349 224.773 620.202 225.991 620.459 234.031C621.598 234.839 635.814 235.5 638.614 236.125C641.968 236.874 643.364 237.36 646.688 238.688C644.056 239.667 640.171 241.546 637.499 242.732C617.185 236.301 596.793 230.116 576.329 224.181C585.08 212.786 593.229 214.117 603.37 204.794Z"/><path fill="#F6AC85" transform="scale(0.727273 0.727865)" d="M628.296 332.899C627.473 336.505 627.446 340.646 623.833 341.919C619.189 340.693 616.491 335.533 616.548 330.966C616.586 327.917 617.884 325.02 620.133 322.961C626.37 317.139 638.136 318.417 646.186 318.794C642.761 324.462 640.458 329.132 637.554 335.113L628.296 332.899Z"/><path fill="#D07963" transform="scale(0.727273 0.727865)" d="M586.207 236.297C603.08 240.913 619.17 245.245 635.53 251.519L632.304 260.976C624.325 260.405 620.973 254.301 613.996 250.991C605.323 246.875 596.277 243.513 587.886 238.832C586.958 238.315 586.706 237.281 586.207 236.297Z"/><path fill="#D1E0E1" transform="scale(0.727273 0.727865)" d="M660.148 264.61C662.396 258.681 663.76 251.793 670.523 250.137C674.648 257.501 665.084 270.622 662.469 277.97C659.981 274.387 660.007 268.766 660.148 264.61Z"/><path fill="#EDCDB9" transform="scale(0.727273 0.727865)" d="M647.313 244.65C667.558 245.669 648.288 273.248 641.942 280.233C640.824 280.955 639.785 281.235 638.533 281.67C628.34 278.719 642.13 248.591 647.313 244.65Z"/><path fill="#D1E0E1" transform="scale(0.727273 0.727865)" d="M659.905 332.41C677.474 327.556 695.935 323.994 713.812 320.436C724.578 318.293 724.268 323.701 725.457 332.412L725.908 334.661C726.587 346.839 730.249 359.736 731.657 371.918C732.773 381.578 735.621 393.161 735.314 402.747C733.33 406.103 732.432 407.1 729.782 410.015C727.618 412.534 725.457 415.116 723.166 417.516C718.077 423.475 710.508 429.342 703.681 433.239C700.018 439.907 706.382 448.264 697.089 450.969L696.428 451.158C696.092 444.773 697.442 445.332 691.772 441.868C690.534 445.196 689.106 448.356 687.673 451.6C673.477 451.824 656.325 446.29 648.172 433.99C648.736 427.13 649.048 422.76 648.281 415.4C647.065 403.069 641.38 387.121 643.649 374.801C644.378 370.837 653.801 361.018 656.122 355.737C654.513 350.373 650 341.263 652.68 335.865C653.75 333.71 657.643 332.986 659.905 332.41Z"/><path fill="#F6AC85" transform="scale(0.727273 0.727865)" d="M656.122 355.737C663.402 356.559 663.29 359.048 665.153 365.509C665.789 372.039 664.805 373.503 661.971 379.321C664.678 387.412 672.199 413.773 678.354 418.655C681.797 421.386 699.795 416.876 705.257 415.697C713.376 413.969 721.726 411.439 729.782 410.015C727.618 412.534 725.457 415.116 723.166 417.516C718.077 423.475 710.508 429.342 703.681 433.239C700.018 439.907 706.382 448.264 697.089 450.969L696.428 451.158C696.092 444.773 697.442 445.332 691.772 441.868C690.534 445.196 689.106 448.356 687.673 451.6C673.477 451.824 656.325 446.29 648.172 433.99C648.736 427.13 649.048 422.76 648.281 415.4C647.065 403.069 641.38 387.121 643.649 374.801C644.378 370.837 653.801 361.018 656.122 355.737Z"/><path fill="#D07963" transform="scale(0.727273 0.727865)" d="M665.153 365.509C665.789 372.039 664.805 373.503 661.971 379.321C664.678 387.412 672.199 413.773 678.354 418.655C681.797 421.386 699.795 416.876 705.257 415.697C713.376 413.969 721.726 411.439 729.782 410.015C727.618 412.534 725.457 415.116 723.166 417.516C708.578 418.658 694.672 429.837 679.669 423.701C674.953 421.773 674.643 425.841 669.702 427.627C669.28 427.542 668.859 427.456 668.438 427.371C668.761 423.889 669.32 417.32 668.7 414.406C666.689 404.945 660.428 391.044 654.712 383.622C660.17 375.21 663.393 376.81 665.153 365.509Z"/><path fill="#3D3F41" transform="scale(0.727273 0.727865)" d="M695.485 436.729L703.681 433.239C700.018 439.907 706.382 448.264 697.089 450.969L696.428 451.158C696.092 444.773 697.442 445.332 691.772 441.868L692.745 439.569L695.485 436.729Z"/><path fill="#D07963" transform="scale(0.727273 0.727865)" d="M672.956 436.597C682.447 437.347 686.182 436.908 695.485 436.729L692.745 439.569L692.159 439.198C681.183 442.622 683.259 442.472 672.956 436.597Z"/><path fill="#92B0B5" transform="scale(0.727273 0.727865)" d="M659.905 332.41C663.415 333.462 671.252 330.337 672.229 333.169C677.794 349.3 685.46 400.388 695.07 412.555C699.033 414.668 700.723 415.344 705.257 415.697C699.795 416.876 681.797 421.386 678.354 418.655C672.199 413.773 664.678 387.412 661.971 379.321C664.805 373.503 665.789 372.039 665.153 365.509C663.29 359.048 663.402 356.559 656.122 355.737C654.513 350.373 650 341.263 652.68 335.865C653.75 333.71 657.643 332.986 659.905 332.41Z"/><path fill="#F5F8F8" transform="scale(0.727273 0.727865)" d="M709.649 327.351C711.688 327.203 712.707 327.259 714.712 327.385C718.32 330.206 730.9 400.728 727.199 406.394C726.008 406.002 725.372 405.572 724.308 404.951C720.13 379.917 713.533 355.317 709.106 330.34C708.908 329.227 709.125 328.336 709.649 327.351Z"/><path fill="#193342" transform="scale(0.727273 0.727865)" d="M680.056 714.286C692.419 714.283 705.64 714.527 717.928 714.247C717.562 731.328 714.353 748.774 714.099 768L678.057 768C677.723 759.44 679.192 751.078 679.474 742.585C679.79 733.065 679.522 723.839 680.056 714.286Z"/><path fill="#D07963" fill-opacity="0.98039216" transform="scale(0.727273 0.727865)" d="M725.908 334.661C729.683 340.581 726.46 346.958 734.551 349.068C735.692 351.31 735.895 351.873 737.936 353.522C734.629 353.561 734.533 353.014 732.295 354.599C730.233 359.774 732.243 366.611 736.634 369.826L738.995 370.366L733.453 377.551C734.686 379.436 737.302 384.207 738.907 385.168C741.092 383.208 740.063 383.706 742.782 383.091C743.968 384.916 743.787 384.076 743.456 386.237C741.339 389.432 738.503 391.409 735.659 393.946C735.573 396.529 735.569 400.271 735.314 402.747C735.621 393.161 732.773 381.578 731.657 371.918C730.249 359.736 726.587 346.839 725.908 334.661Z"/><path fill="#F6AC85" transform="scale(0.727273 0.727865)" d="M737.936 353.522C743.904 358.801 743.535 364.141 738.995 370.366L736.634 369.826C732.243 366.611 730.233 359.774 732.295 354.599C734.533 353.014 734.629 353.561 737.936 353.522Z"/><path fill="#F6AC85" transform="scale(0.727273 0.727865)" d="M725.457 332.412C736.175 334.529 742.441 337.573 734.551 349.068C726.46 346.958 729.683 340.581 725.908 334.661L725.457 332.412Z"/></svg>