<?xml version="1.0" encoding="utf-8" ?><svg xmlns="http://www.w3.org/2000/svg" xmlns:xlink="http://www.w3.org/1999/xlink" width="1024" height="573" viewBox="0 0 1024 573"><path fill="#1D1D1D" transform="scale(1.04171 1.04182)" d="M532.316 469.184C526.646 466.804 519.228 465.379 513.199 464.006C493.402 459.497 473.26 458.624 453.263 455.663C444.17 454.317 435.642 449.762 426.529 448.616C413.184 447.76 399.565 447.447 386.196 447.685C382.116 448.471 377.305 452.528 373.649 453.973C346.027 464.886 318.015 462.279 289.097 459.269C251.935 455.401 212.526 452.014 176.394 442.092C131.139 429.665 90.7034 398.953 76.8285 352.744C75.8526 349.886 75.3906 342.772 73.3428 340.659C45.9705 312.412 24.2213 283.712 12.8401 245.243C-1.07879 199.647 4.04746 150.36 27.0517 108.603C52.8151 61.4764 98.9064 25.265 150.31 10.1061C170.61 4.11935 202.628 -0.0229155 222.035 10.92C230.104 15.4698 236.909 22.7963 239.45 31.8486C241.231 38.2517 241.022 45.0447 238.851 51.3263C230.352 75.2711 197.468 78.0553 176.841 88.0551C140.626 105.612 106.793 134.064 103.293 176.905C102.464 187.062 105.284 199.568 108.118 209.339C116.616 198.598 136.228 181.226 147.679 173.241C196.947 138.884 262.476 121.208 322.231 129.799C342.065 132.65 358.68 139.077 377.944 142.708C411.609 149.052 431.9 123.971 454.464 103.789C463.63 95.5909 473.957 87.1482 484.471 79.5203C508.37 62.5613 539.921 48.266 569.834 51.2095C585.101 52.7117 584.037 68.9689 582.918 80.1613C581.759 91.7398 579.469 103.019 577.218 114.464C596.827 107.844 617.72 103.211 638.476 103.556C642.913 103.63 648.055 103.746 652.241 105.33C654.439 106.162 656.406 107.554 657.357 109.769C661.587 119.617 639.175 149.246 635.002 159.911C637.116 163.49 642.518 170.059 645.25 173.708C653.169 184.284 654.943 192.372 657.955 204.767C663.434 205.717 685.51 215.048 689.059 218.51C690.827 222.868 687.305 225.151 687.445 227.551C688.316 242.575 682.08 256.717 670.083 265.908C667.676 267.753 662.904 269.638 660.406 271.647C659.658 272.25 659.883 272.991 659.893 273.897C659.726 275.595 659.462 277.693 659.413 279.36C658.238 284.833 656.977 291.504 654.329 296.399C643.081 317.194 624.748 328.69 603.226 336.017C624.826 342.217 638.479 348.479 650.524 367.811C655.868 352.7 659.832 336.86 666.637 322.389C669.08 317.193 681.355 311.159 685.798 313.832L686.071 314.936C685.144 318.22 680.654 322.603 679.515 326.168C677.859 331.353 676.293 336.639 674.596 341.808L663.18 376.116C649.334 418.674 636.947 462.016 621.773 504.12C620.131 508.676 616.672 511.187 612.879 513.894C608.206 513.485 601.274 511.868 596.487 510.884C588.004 509.109 579.497 507.454 570.967 505.921C523.748 497.646 476.48 490.932 428.792 486.003C425.115 485.623 413.636 483.772 418.018 491.627C420.74 492.658 438.227 495.336 442.407 496.051L487.953 504.206L573.826 518.823C588.31 521.354 605.419 525.554 619.825 526.743C631.236 527.685 648.666 526.352 660.781 525.797C683.627 524.865 706.463 523.722 729.287 522.369C762.679 520.308 796.082 518.437 829.494 516.755C838.437 516.316 847.383 515.961 856.332 515.692C863.56 515.474 870.762 515.695 877.831 514.008C881.273 513.187 884.543 512.01 888.051 511.511C893.712 514.378 884.033 531.763 872.775 533.232C860.843 534.789 850.094 535.351 838.11 536.062C814.557 537.512 790.993 538.767 767.419 539.826C734.276 541.65 701.121 543.258 667.957 544.65C652.39 545.36 633.138 546.906 617.812 546.529C608.94 546.311 590.237 542.548 581.319 540.857C566.525 538.03 551.714 535.3 536.884 532.667C509.143 527.627 481.372 522.744 453.575 518.019C440.736 515.784 427.858 513.601 415.037 511.278C412.479 510.654 407.882 509.999 405.806 508.506C394.421 500.661 405.026 482.318 415.301 479.278C426.064 476.092 439.464 475.971 450.754 475.308C468.409 474.442 486.05 473.322 503.673 471.948C512.372 471.303 523.945 470.724 532.316 469.184ZM329.538 362.584C354.075 368.903 356.435 371.114 374.523 387.231C379.072 387.323 383.32 387.402 387.868 387.775C381.521 373.262 379.296 350.133 383.41 334.534C385.095 328.146 391.58 331.95 392.793 336.287C393.123 337.506 393.287 338.602 393.454 339.847C395.005 363.788 403.188 378.93 418.408 397.512C431.932 414.024 450.044 433.613 473.628 431.931C494.576 429.994 513.088 412.666 532.687 405.97C541.414 402.958 545.621 402.337 554.743 401.817C555.238 399.432 555.732 397.077 557.926 395.644C558.854 395.038 559.907 394.933 560.969 395.211C570.597 397.735 571.315 416.536 592.212 416.159C595.355 416.103 598.923 415.857 601.732 414.346C604.412 412.905 606.109 410.443 606.957 407.564C608.413 402.618 605.157 391.243 606.935 388.906C615.584 384.477 614.965 406.317 622.914 403.03C632.272 399.16 636.684 385.623 631.987 376.77C617.66 349.767 574.344 351.08 548.657 354.215C525.141 357.127 502.612 365.358 479.005 367.553C470.995 368.298 464.216 360.737 472.258 357.415C485.493 351.948 500.982 344.951 514.654 341.095C508.571 336.38 500.193 329.579 495.149 323.653C494.487 322.876 493.917 320.072 493.869 319.043C493.75 316.518 493.28 316.174 494.511 314.094C499.243 312.652 500.467 318.288 503.484 320.098C512.499 325.506 521.733 330.42 532.014 332.954C533.522 330.803 535.651 327.73 538.498 327.662C561.53 327.114 585.119 327.443 606.616 317.732C609.122 316.6 617.75 313.327 617.209 310.212C612.039 306.456 593.155 314.839 592.085 304.054C591.924 302.422 591.89 302.794 592.559 301.518C596.727 300.53 608.872 304.791 614.053 296.422C615.135 294.697 615.464 292.604 614.966 290.63C613.298 284.254 605.707 284.309 603.72 281.164C603.727 277.214 609.022 275.778 612.416 275.003C617.167 273.918 631.695 270.978 631.281 279.22C631.042 283.984 625.769 287.646 622.685 290.994C622.137 294.819 621.097 301.38 625.268 303.247C632.641 303.088 641.369 287.774 642.095 281.01C642.287 279.217 642.573 277.07 642.701 275.253C619.137 272.163 610.167 264.592 607.654 240.635C604.441 240.862 601.764 241.021 598.577 241.579C598.609 244.434 598.695 247.622 598.404 250.458C595.065 283.092 545.783 295.891 523.814 274.309C517.889 268.489 516.515 262.307 514.636 254.588C506.549 252.014 498.04 250.132 489.821 247.809C473.789 243.351 457.954 238.063 442.713 231.351C437.265 228.952 430.46 226.59 426.569 221.914C422.943 217.557 425.804 209.009 432.423 212.88C436.459 215.241 440.302 218.051 444.572 219.996C451.26 222.691 458.55 225.533 465.328 227.879C480.988 233.301 499.136 239.835 515.653 241.58C519.189 230.631 524.355 223.063 534.897 217.949C555.171 208.114 581.298 208.254 594.748 228.635C599.902 228.096 603.635 228.045 608.771 228.027C615.179 213.101 622.074 208.577 637.781 205.439C629.84 176.911 608.333 154.868 583.004 140.527C578.091 137.713 573.004 135.215 567.773 133.048C564.433 135.438 559.945 138.647 555.571 137.851C554.291 137.618 553.365 136.796 552.695 135.709C550.678 132.437 551.649 127.537 552.622 124.094C555.369 114.377 568.614 78.4495 564.602 70.7766C564.063 69.7469 563.283 69.4012 562.177 69.199C560.397 68.8736 558.105 69.2038 556.294 69.3914C518.392 72.7504 482.876 102.961 457.119 128.509C415.707 169.584 391.735 168.886 338.132 155.107C264.937 136.291 179.498 161.062 130.528 219.326C85.861 270.436 78.7101 352.482 133.786 398.964C145.444 408.787 159.326 415.926 173.739 420.692C196.653 428.521 220.334 431.058 244.376 434.101C275.534 437.897 307.355 442.055 338.774 440.086C347.113 439.563 360.806 436.709 365.86 429.928C375.413 417.111 362.862 401.103 352.855 393.516C326.966 373.888 290.412 378.132 260.701 384.486C255.719 385.559 243.179 389.515 238.418 386.25C238.034 385.987 237.678 385.062 237.442 384.582C237.267 380.496 240.554 378.125 244.038 376.961C280.609 364.741 314.315 341.186 314.112 298.656C313.918 257.703 280.646 223.086 240.835 216.976C239.683 216.798 238.027 214.679 237.552 213.621C237.65 207.793 246.749 208.161 250.893 208.453C305.337 212.293 345.923 261.379 343.105 314.793C342.5 327.468 339.684 339.939 334.784 351.645C333.195 355.341 330.969 359.212 329.538 362.584ZM618.92 438.927C620.205 441.436 622.689 447.669 623.672 449.159C625.594 447.058 635.283 417.383 635.727 413.659L635.468 413.377C624.538 421.096 618.336 421.029 607.384 426.736C612.173 430.432 615.53 433.833 618.92 438.927ZM529.057 488.289L556.676 492.918C557.373 491.515 558.382 489.33 559.198 488.073C572.741 484.995 599.706 484.037 613.453 484.49C614.319 482.208 615.055 480.323 615.667 477.935C613.431 478.035 610.728 478.083 608.539 478.294C593.036 479.043 578.759 482.874 562.788 482.266C550.985 481.817 528.268 482.856 516.902 485.96C521.34 486.987 524.629 487.527 529.057 488.289ZM640.009 229.462C640.83 225.081 641.228 221.691 640.906 217.178C631.237 217.961 623.542 222.454 620.658 232.13C618.957 238.991 619.121 246.488 622.794 252.714C625.417 257.226 629.758 260.481 634.824 261.734C649.863 265.487 670.967 254.861 674.122 238.937C676.957 224.632 672.603 218.731 658.395 217.141C657.41 227.628 655.992 239.328 653.597 249.524C648.88 269.594 622.117 242.029 637.385 231.216C638.246 230.612 639.121 230.027 640.009 229.462ZM555.818 272.594C565.931 271.319 574.678 268.731 581.377 260.288C588.412 251.422 588.016 235.674 578.436 228.721C572.337 224.293 566.177 223.574 558.99 223.387C542.721 224.087 525.827 232.812 527.007 251.238C528.123 268.668 540.888 272.959 555.818 272.594ZM91.5731 233.451C79.9829 199.753 71.2865 173.116 88.0622 138.656C106.522 100.132 146.12 75.0552 185.381 61.619C196.939 57.6638 223.413 53.1853 217.622 36.0167C213.567 23.994 192.813 22.6104 182.35 23.6727C97.1945 35.1177 20.9069 114.58 33.6862 203.401C38.6802 238.112 50.6912 263.798 71.9347 291.448C72.2321 288.662 72.4992 285.359 72.8854 282.627C75.0445 271.109 78.6441 259.909 83.5993 249.289C86.1104 243.945 89.0624 238.86 91.5731 233.451ZM577.107 496.461C585.983 497.727 606.877 503.611 610.896 492.749C612.607 488.125 603.168 488.72 600.889 488.782C593.83 489.189 568.703 489.512 564.006 492.32L563.681 493.121C565.523 495.302 573.998 496.024 577.107 496.461ZM554.572 421.941C538.569 425.765 517.862 435.784 504.275 445.514C516.929 448.714 538.163 451.133 549.531 457.064C559.437 462.234 560.803 474.046 575.96 470.282C579.939 468.372 581.5 466.722 582.027 462.05C582.513 457.729 576.958 448.596 585.079 449.338C591.833 453.29 588.918 467.675 597.484 467.151C599.628 467.02 603.706 462.847 604.853 460.708C608.924 453.11 604.857 444.52 598.982 439.06C592.743 433.261 583.971 433.763 576.375 431.1C569.077 428.896 561.936 420.864 554.572 421.941Z"/><path fill="#1D1D1D" transform="scale(1.04171 1.04182)" d="M398.505 253.553C407.033 252.091 483.566 265.585 489.806 269.662C490.897 270.375 491.263 271.138 491.539 272.381C491.333 274.239 490.99 274.557 489.889 275.981C484.833 275.999 476.326 274.294 471.205 273.334C462.127 271.634 453.181 269.807 444.054 268.257C435.126 266.737 426.186 265.282 417.236 263.892C412.834 263.205 401.778 261.747 398.283 260.313C396.042 258.012 396.76 255.837 398.505 253.553Z"/><path fill="#1D1D1D" transform="scale(1.04171 1.04182)" d="M542.943 85.0351C564.957 82.5504 532.538 107.964 529.567 111.394C524.696 117.018 518.486 129.338 512.534 132.387C503.981 132.756 503.004 127.782 506.379 121.15C512.59 108.947 530.2 89.7593 542.943 85.0351Z"/><path fill="#1D1D1D" transform="scale(1.04171 1.04182)" d="M514.642 295.246C517.411 295.165 519.078 295.53 519.46 298.479C517.888 302.834 505.201 306.473 500.787 308.139C493.461 310.871 486.272 313.96 479.248 317.395C462.527 325.71 453.279 332.121 438.252 342.258C436.893 342.266 435.516 341.812 434.285 341.21C433.687 340.918 433.238 340.345 433.096 339.694C432.905 338.811 433.525 337.393 434.035 336.839C445.297 324.604 500.421 297.734 514.642 295.246Z"/><path fill="#1D1D1D" transform="scale(1.04171 1.04182)" d="M483.653 285.282C487.397 285.027 496.076 284.119 494.22 290.355C493.341 291.434 492.108 291.639 490.779 291.829C468.477 295.022 446.16 297.297 424.416 303.518C421.119 304.721 413.391 306.848 412.538 301.457C412.739 300.771 412.994 300.247 413.467 299.702C419.059 293.259 472.991 286.249 483.653 285.282Z"/><path fill="#1D1D1D" transform="scale(1.04171 1.04182)" d="M499.736 271.675C502.865 271.452 505.393 271.122 506.814 274.447C506.769 276.361 506.377 276.748 505.318 278.266C500.059 279.727 496.794 276.613 499.736 271.675Z"/><path fill="#1D1D1D" transform="scale(1.04171 1.04182)" d="M502.475 284.129C505.437 284.214 507.52 284.308 507.336 287.903C506.489 289.56 506.132 289.695 504.574 290.559C501.758 290.523 499.804 290.357 499.687 287.077C500.411 285.322 500.925 285.116 502.475 284.129Z"/><path fill="#1D1D1D" transform="scale(1.04171 1.04182)" d="M554.213 236.228C560.604 235.846 565.851 238.721 567.307 245.277C568.047 248.605 567.396 252.091 565.503 254.927C562.946 258.726 560.094 259.69 555.873 260.521C539.705 260.553 536.585 240.598 554.213 236.228Z"/><path fill="#1D1D1D" transform="scale(1.04171 1.04182)" d="M803.767 308.356L884.119 308.191L908.923 308.101C913.923 308.086 919.77 307.72 924.628 308.508C939.196 310.732 943.082 321.149 938.806 334.29C930.776 358.968 922.832 383.699 915.072 408.467L899.33 458.395C896.441 467.548 893.664 476.796 890.47 485.849C888.266 492.098 884.371 496.302 879.054 500.024C872.93 504.311 866.652 504.563 859.477 505.168C850.242 505.934 840.925 505.989 831.657 506.472L765.788 510.252C750.571 511.86 729.56 512.339 713.738 513.219L677.678 514.921C671.256 515.239 637.301 518.342 634.762 512.658C636.282 503.121 642.889 483.961 646.01 474.098L666.151 410.602L683.121 357.528C686.263 347.588 689.398 337.694 692.784 327.715C694.906 321.461 707.318 311.315 713.709 309.815C719.475 308.461 730.873 309.088 737.161 308.987L803.767 308.356ZM853.1 414.001C842.704 419.704 831.514 423.854 821.186 429.581C817.514 431.617 818.49 438.911 820.223 442.044C823.167 447.366 829.233 442.663 833.071 440.596C840.645 436.793 848.296 433.146 856.019 429.658C862.043 426.926 868.857 424.221 874.482 420.744C877.785 418.703 877.442 413.106 877.429 409.607C876.041 408.429 874.193 406.891 872.592 406.046C859.901 399.349 847.445 392.315 834.998 385.182C834.136 384.688 832.488 384.798 831.507 384.867C812.288 396.98 843.647 407.847 853.1 414.001ZM748.072 440.063C758.248 446.769 760.659 438.735 761.341 430.006C754.195 424.437 740.821 418.283 732.624 413.437C743.218 407.593 755.465 403.913 765.735 397.696C770.612 394.745 768.59 384.309 762.056 382.403C745.835 389.929 729.917 398.749 713.729 406.401C708.923 408.673 709.783 418.999 714.68 421.757C725.708 427.97 737.262 433.488 748.072 440.063ZM779.485 456.564C780.562 456.038 782.366 455.213 782.879 454.183C786.626 446.659 790.031 438.077 793.433 430.454L810.159 392.643C813.425 385.286 816.651 378.076 819.695 370.618C822.778 363.065 816.112 361.898 810.066 362.366C806.428 364.904 802.949 375.24 800.976 379.712L787.459 409.936C783.994 417.691 780.474 425.421 776.899 433.126C774.238 438.821 770.493 445.475 768.96 451.396C767.672 456.373 776.088 457.364 779.485 456.564Z"/><path fill="#1D1D1D" transform="scale(1.04171 1.04182)" d="M807.35 191.645C811.933 193.021 813.827 211.734 818.404 218.142C823.447 225.202 847.217 226.575 846.327 231.335C843.56 234.065 830.662 236.2 825.073 238.773C814.73 243.534 813.753 257.353 809.579 268.581C809.361 268.594 808.052 268.391 808.055 268.395C804.467 262.502 804.281 251.051 800.254 245.482C795.337 238 785.929 236.444 777.927 234.243C775.704 233.632 771.36 232.953 770.936 230.274C772.411 227.986 779.62 226.588 782.206 225.861C800.483 220.729 800.087 218.237 804.645 200.3C805.251 197.916 806.111 193.866 807.35 191.645Z"/><path fill="#1D1D1D" transform="scale(1.04171 1.04182)" d="M874.152 237.686C874.58 237.91 875.095 238.178 875.696 238.492C877.599 242.482 877.843 247.156 879.84 251.385C883.014 258.105 891.772 258.521 898.982 260.836C879.352 266.963 881.061 263.614 875.582 285.07C872.139 283.026 872.576 272.708 868.677 268.135C864.782 263.566 854.224 263.123 852.372 261.129C853.841 258.94 861.73 258.086 864.806 256.466C871.604 252.886 871.971 244.576 874.152 237.686Z"/><path fill="#1D1D1D" transform="scale(1.04171 1.04182)" d="M661.252 274.484C670.122 270.927 726.946 260.461 733.826 263.408C734.822 263.835 736.173 264.953 736.556 265.989C736.818 266.698 736.445 267.145 736.158 267.775C732.195 271.023 723.229 270.87 717.876 271.303C708.671 272.079 699.496 273.181 690.369 274.609C681.542 276.047 672.761 278.237 663.98 279.906C662.967 280.099 661.436 279.444 660.49 279.023C660.422 277.045 660.704 276.372 661.252 274.484Z"/><path fill="#1D1D1D" transform="scale(1.04171 1.04182)" d="M658.318 290.454C664.643 289.589 690.801 294.462 694.132 299.676C694.316 301.434 694.385 300.729 693.386 302.59C692.423 302.948 690.562 303.402 689.668 303.172C684.781 301.916 659.876 296.525 657.706 294.007C657.297 292.589 657.773 291.866 658.318 290.454Z"/><path fill="#DCDBDC" fill-opacity="0.035294119" transform="scale(1.04171 1.04182)" d="M659.893 273.897L661.252 274.484C660.704 276.372 660.422 277.045 660.49 279.023L659.413 279.36C659.462 277.693 659.726 275.595 659.893 273.897Z"/></svg>