<?xml version="1.0" encoding="utf-8" ?><svg xmlns="http://www.w3.org/2000/svg" xmlns:xlink="http://www.w3.org/1999/xlink" width="1024" height="1024" viewBox="0 0 1024 1024"><defs><linearGradient id="gradient_0" gradientUnits="userSpaceOnUse" x1="618.43146" y1="949.37518" x2="917.96527" y2="621.95209"><stop offset="0" stop-color="#053A80"/><stop offset="1" stop-color="#0F8FD7"/></linearGradient></defs><path fill="url(#gradient_0)" d="M843.255 548.803L845.579 548.188C848.744 551.187 848.864 555.961 848.896 560.148C849.04 579.051 848.988 598.039 848.987 616.94L848.987 724.413L848.926 987.6C849.038 994.551 849.064 1001.5 849.004 1008.46C848.688 1009.09 848.617 1009.01 848.022 1009.52C818.77 1010.22 788.885 1009.47 759.57 1009.66C749.331 1009.73 740.24 1011.87 730.531 1009.84C729.534 997.917 730.187 978.614 730.188 965.968L730.188 883.235L730.285 800.92C730.262 785.199 729.92 769.038 730.624 753.345C730.823 748.903 733.094 742.814 734.56 738.44C736.934 731.69 737.513 726.027 737.923 719.012C736.837 717.403 737.215 717.371 735.739 716.908C732.141 718.183 727.5 725.196 724.321 728.487C718.999 736.769 717.316 743.7 712.198 751.279C711.06 752.964 705.583 756.682 703.523 758.687C699.032 763.006 695.234 769.025 690.849 773.339C687.689 776.448 683.943 778.813 680.545 782.181C659.275 803.258 637.903 824.225 616.441 845.1C612.854 848.589 608.629 851.621 605.157 855.268C600.661 859.722 596.338 864.437 591.787 868.819C587.337 873.104 581.572 876.447 577.696 881.257C576.27 894.699 577.026 905.061 577.032 918.484L576.932 975.591C576.922 982.563 577.491 1000.22 576.01 1005.94C575.785 1007.38 575.77 1007.51 575.246 1008.87C572.64 1010.64 539.622 1009.29 533.834 1009.54C514.272 1010.41 494.695 1008.36 475.167 1011.21C469.507 1012.04 456.112 1012.45 451.384 1009.19C450.523 1006.54 450.516 1003.68 450.516 1000.92C450.51 964.976 450.503 929.022 450.499 893.078L450.485 859.268C450.487 853.785 450.218 846.009 450.897 840.778C451.822 833.646 457.202 830.672 462.409 827.148C467.931 822.083 473.525 816.115 478.959 811.352C480.977 809.235 484.349 806.369 486.565 804.404C488.53 802.204 490.456 800.223 492.516 798.117C494.306 796.685 495.135 795.431 496.527 793.634C498.158 792.094 499.763 790.527 501.341 788.934C506.748 782.643 513.272 777.277 518.556 771.209C529.899 758.186 544.376 746.854 555.389 733.738C557.231 732.463 565.079 725.121 566.165 723.082C567.666 721.745 568.959 720.233 570.311 718.741C571.384 718.08 575.025 714.495 576.155 713.423C581.682 711.802 613.968 676.792 621.213 670.122C632.988 659.283 646.794 645.248 658.319 633.593C662.474 629.391 668.318 623.825 672.108 619.462C677.054 615.291 691.011 601.833 695.191 597.056C704.633 587.43 714.43 578.081 723.908 568.521C727.244 565.157 733.881 558.736 736.573 555.259C739.273 552.888 739.955 552.443 743.078 550.708C744.649 549.682 746.421 549.205 748.29 549.17C779.9 548.578 811.652 549.493 843.255 548.803Z"/><path fill="#01377B" d="M574.077 874.011C577.326 871.298 581.204 866.8 584.212 863.656C599.6 847.572 616.074 832.818 632.15 817.471L686.29 765.299C694.324 757.612 702.266 749.314 710.469 741.673C715.145 737.318 719.302 732.578 724.321 728.487C718.999 736.769 717.316 743.7 712.198 751.279C711.06 752.964 705.583 756.682 703.523 758.687C699.032 763.006 695.234 769.025 690.849 773.339C687.689 776.448 683.943 778.813 680.545 782.181C659.275 803.258 637.903 824.225 616.441 845.1C612.854 848.589 608.629 851.621 605.157 855.268C600.661 859.722 596.338 864.437 591.787 868.819C587.337 873.104 581.572 876.447 577.696 881.257C576.27 894.699 577.026 905.061 577.032 918.484L576.932 975.591C576.922 982.563 577.491 1000.22 576.01 1005.94C575.785 1007.38 575.77 1007.51 575.246 1008.87C572.64 1010.64 539.622 1009.29 533.834 1009.54C514.272 1010.41 494.695 1008.36 475.167 1011.21C469.507 1012.04 456.112 1012.45 451.384 1009.19C450.523 1006.54 450.516 1003.68 450.516 1000.92C450.51 964.976 450.503 929.022 450.499 893.078L450.485 859.268C450.487 853.785 450.218 846.009 450.897 840.778C451.822 833.646 457.202 830.672 462.409 827.148C467.931 822.083 473.525 816.115 478.959 811.352C480.397 811.255 480.554 811.165 481.746 810.353L482.293 810.682L481.983 811.244C480.417 814.132 480.399 816.127 478.809 818.802C479.049 820.529 478.722 819.773 479.866 821.132C482.244 821.68 488.769 822.875 490.093 824.76L489.312 826.46C491.06 830.332 492.915 826.055 492.085 833.179C494.573 838.319 498.945 838.709 504.184 839.559C504.268 841.261 503.994 841.976 504.809 843.14L505.424 843.046L505.922 841.327C509.077 842.098 512.174 843.092 515.188 844.302C516.392 844.782 516.246 844.711 517.566 844.624C518.202 845.372 518.775 846.04 519.437 846.768C519.783 844.941 519.747 844.15 519.755 842.267L520.148 843.213C521.345 843.579 524.076 844.041 524.505 844.209C529.885 846.318 536.789 850.419 542.214 851.927C549.266 853.889 563.18 853.361 568.929 858.562C569.079 864.492 575.973 864.58 570.419 872.234C570.283 872.421 570.181 873.193 570.115 873.458C572.027 872.494 571.182 872.457 572.805 872.819L574.077 874.011Z"/><path fill="#011845" d="M574.077 874.011C577.326 871.298 581.204 866.8 584.212 863.656C599.6 847.572 616.074 832.818 632.15 817.471L686.29 765.299C694.324 757.612 702.266 749.314 710.469 741.673C715.145 737.318 719.302 732.578 724.321 728.487C718.999 736.769 717.316 743.7 712.198 751.279C711.06 752.964 705.583 756.682 703.523 758.687C699.032 763.006 695.234 769.025 690.849 773.339C687.689 776.448 683.943 778.813 680.545 782.181C659.275 803.258 637.903 824.225 616.441 845.1C612.854 848.589 608.629 851.621 605.157 855.268C600.661 859.722 596.338 864.437 591.787 868.819C587.337 873.104 581.572 876.447 577.696 881.257C576.27 894.699 577.026 905.061 577.032 918.484L576.932 975.591C576.922 982.563 577.491 1000.22 576.01 1005.94C575.785 1007.38 575.77 1007.51 575.246 1008.87C572.64 1010.64 539.622 1009.29 533.834 1009.54C514.272 1010.41 494.695 1008.36 475.167 1011.21C469.507 1012.04 456.112 1012.45 451.384 1009.19C450.523 1006.54 450.516 1003.68 450.516 1000.92C450.51 964.976 450.503 929.022 450.499 893.078L450.485 859.268C450.487 853.785 450.218 846.009 450.897 840.778C451.822 833.646 457.202 830.672 462.409 827.148C461.397 831.572 457.802 831.532 457.273 835.172L459.55 832.959L460.185 833.082C461.421 837.948 461.35 851.786 461.487 857.181C461.84 871.077 461.828 884.945 462.235 898.887C462.412 904.949 461.871 912.616 461.89 918.974L462.172 968.189C462.154 976.473 462.352 987.514 461.424 995.59L537.886 995.541C547.489 995.546 557.093 995.559 566.695 995.348C567.409 995.332 568.332 995.836 568.924 996.191C569.41 987.192 569.049 974.819 569.031 965.562L568.937 910.412C568.925 900.046 568.489 883.35 570.115 873.458C572.027 872.494 571.182 872.457 572.805 872.819L574.077 874.011Z"/><path fill="#1E599F" d="M570.115 873.458C572.027 872.494 571.182 872.457 572.805 872.819L574.077 874.011C576.874 884.342 575.918 902.005 575.892 913.306L575.835 959.46L575.811 989.19C575.8 993.065 575.892 1002.48 575.331 1006.06C573.406 1004.03 569.918 998.813 568.924 996.191C569.41 987.192 569.049 974.819 569.031 965.562L568.937 910.412C568.925 900.046 568.489 883.35 570.115 873.458Z"/><path fill="#011845" d="M734.56 738.44C734.708 760.672 734.229 783.924 735.063 806.082L736.064 802.229L736.312 802.252C736.376 809.463 738.086 813.13 736.867 819.962C736.491 822.072 737.072 829.313 737.017 832.511L736.921 832.221C737.023 834.952 737.563 860.789 737.009 862.25L736.634 857.78C736.2 865.011 736.952 868.875 737.033 875.717C737.142 884.875 737.27 894.329 737.255 903.472L737.739 969.74C737.841 976.533 737.339 988.792 738.398 994.771L738.999 995.815C744.957 995.885 751.018 995.575 756.928 995.716C785.155 996.387 814.489 994.682 842.597 995.971C842.847 997.689 843.031 999.57 843.626 1001.17C844.691 1004.99 845.563 1006.33 849.004 1008.46C848.688 1009.09 848.617 1009.01 848.022 1009.52C818.77 1010.22 788.885 1009.47 759.57 1009.66C749.331 1009.73 740.24 1011.87 730.531 1009.84C729.534 997.917 730.187 978.614 730.188 965.968L730.188 883.235L730.285 800.92C730.262 785.199 729.92 769.038 730.624 753.345C730.823 748.903 733.094 742.814 734.56 738.44Z"/><defs><linearGradient id="gradient_1" gradientUnits="userSpaceOnUse" x1="860.79388" y1="788.29999" x2="832.20612" y2="786.20001"><stop offset="0" stop-color="#015270"/><stop offset="1" stop-color="#106DC1"/></linearGradient></defs><path fill="url(#gradient_1)" d="M845.579 548.188C848.744 551.187 848.864 555.961 848.896 560.148C849.04 579.051 848.988 598.039 848.987 616.94L848.987 724.413L848.926 987.6C849.038 994.551 849.064 1001.5 849.004 1008.46C845.563 1006.33 844.691 1004.99 843.626 1001.17C844.797 999.158 844.6 997.521 844.682 995.195C844.146 969.835 845.16 943.758 844.761 918.325C844.6 908.088 845.226 895.793 844.495 885.796C844.911 865.533 844.59 844.02 844.626 823.68L844.81 682.515L845.021 587.133C845.01 578.706 845.062 570.279 845.178 561.852C845.272 557.428 845.778 552.458 845.579 548.188Z"/><path fill="#01377B" d="M844.682 995.195L845.265 995.347L845.624 996.69C847.199 988.603 844.733 972.185 847.697 966.08C848.703 966.636 847.02 983.717 848.926 987.6C849.038 994.551 849.064 1001.5 849.004 1008.46C845.563 1006.33 844.691 1004.99 843.626 1001.17C844.797 999.158 844.6 997.521 844.682 995.195Z"/><path fill="#20A0E5" d="M843.255 548.803L845.579 548.188C845.778 552.458 845.272 557.428 845.178 561.852C845.062 570.279 845.01 578.706 845.021 587.133L844.81 682.515L844.626 823.68C844.59 844.02 844.911 865.533 844.495 885.796C842.123 891.419 845.349 924.615 843.421 932.05L843.133 931.885C842.55 925.348 843.272 913.624 843.221 906.625C843.074 886.522 843.714 866.063 842.585 845.986L842.488 717.393C842.481 691.559 841.884 663.447 842.559 637.828C844.073 633.963 843.156 561.172 843.255 548.803Z"/><path fill="#022A68" d="M737.923 719.012C738.56 722.824 738.168 745.225 738.149 750.472L738.31 811.805L738.391 934.391L738.457 974.844C738.466 980.171 738.789 989.812 738.398 994.771C737.339 988.792 737.841 976.533 737.739 969.74L737.255 903.472C737.27 894.329 737.142 884.875 737.033 875.717C736.952 868.875 736.2 865.011 736.634 857.78L737.009 862.25C737.563 860.789 737.023 834.952 736.921 832.221L737.017 832.511C737.072 829.313 736.491 822.072 736.867 819.962C738.086 813.13 736.376 809.463 736.312 802.252L736.064 802.229L735.063 806.082C734.229 783.924 734.708 760.672 734.56 738.44C736.934 731.69 737.513 726.027 737.923 719.012Z"/><path fill="#37BCF4" d="M743.078 550.708C744.649 549.682 746.421 549.205 748.29 549.17C779.9 548.578 811.652 549.493 843.255 548.803C843.156 561.172 844.073 633.963 842.559 637.828C842.153 628.356 842.462 617.011 842.46 607.361L842.522 551.211C817.753 551.39 792.984 551.389 768.215 551.21C764.955 551.204 744.667 551.593 743.078 550.708Z"/><path fill="#087FD0" d="M842.585 845.986C843.714 866.063 843.074 886.522 843.221 906.625C843.272 913.624 842.55 925.348 843.133 931.885L843.421 932.05C845.349 924.615 842.123 891.419 844.495 885.796C845.226 895.793 844.6 908.088 844.761 918.325C845.16 943.758 844.146 969.835 844.682 995.195C844.6 997.521 844.797 999.158 843.626 1001.17C843.031 999.57 842.847 997.689 842.597 995.971C842.973 960.581 842.045 924.828 842.448 889.413C842.606 875.488 841.953 859.715 842.585 845.986Z"/><path fill="#01377B" d="M496.527 793.634C498.158 792.094 499.763 790.527 501.341 788.934C500.154 791.472 499.918 792.942 499.29 795.643C496.244 797.509 488.272 804.064 486.565 804.404C488.53 802.204 490.456 800.223 492.516 798.117C494.306 796.685 495.135 795.431 496.527 793.634Z"/><path fill="#20A0E5" d="M743.754 706.873L744.235 707.508C744.945 710.42 743.181 715.867 742.408 718.914C742.024 718.612 741.638 718.312 741.25 718.016C740.603 718.552 741.004 718.307 739.981 718.633C738.878 715.606 742.14 709.571 743.754 706.873Z"/><defs><linearGradient id="gradient_2" gradientUnits="userSpaceOnUse" x1="92.232544" y1="914.3941" x2="367.64728" y2="640.13568"><stop offset="0" stop-color="#021D53"/><stop offset="1" stop-color="#02448F"/></linearGradient></defs><path fill="url(#gradient_2)" d="M168.045 1009.55L168.409 666.56L168.444 587.211C168.42 581.365 167.999 552.57 168.809 549.116L170.776 548.684L172.398 549.008C187.115 549.035 256.005 547.733 264.59 550.826C269.671 552.134 272.093 553.245 276.029 557.02C287.725 568.224 298.764 580.13 310.297 591.498C315.904 597.166 322.514 602.236 328.031 607.951C336.682 616.91 345.947 625.381 354.658 634.233C362.916 642.623 372.142 649.881 380.405 657.98C394.311 671.611 407.837 685.598 422.319 698.655C428.549 704.247 434.723 709.792 440.716 715.645C453.445 728.076 465.955 740.868 479.7 752.182C484.629 756.24 489.295 759.34 491.677 765.33C487.05 776.441 471.722 785.36 463.95 795.448C461.528 797.378 456.544 802.888 454.084 805.417C450.758 808.836 440.227 817.082 437.921 820.112C433.654 822.975 431.174 826.158 430.352 831.363C429.268 838.224 429.441 851.915 430.203 858.931C430.704 861.806 431.09 869.894 430.874 872.707L430.328 872.599L429.708 870.043C428.744 870.522 429.211 870.454 428.336 870.4C422.712 863.92 417.149 860.217 411.364 854.278L337.458 779.304L310.567 751.209C304.988 745.487 298.922 739.996 293.533 734.085C291.082 731.399 288.798 728.566 286.691 725.602C284.101 721.887 284.797 721.398 281.125 718.117C279.395 717.481 278.87 716.067 277.62 714.306C276.665 725.82 278.93 729.036 278.97 739.505L279.943 821.395C280.12 831.793 280.626 841.843 280.632 852.292C281.575 872.925 280.803 898.442 281.068 919.56L281.61 968.274C281.765 977.048 282.901 1001.64 281.133 1008.61C279.849 1009.79 279.48 1009.42 277.265 1009.65C273.043 1009.3 265.513 1009.77 261.031 1009.72C251.11 1009.61 241.166 1009.79 231.248 1009.99C210.18 1010.36 189.106 1010.22 168.045 1009.55Z"/><path fill="#011845" d="M168.045 1009.55L168.409 666.56L168.444 587.211C168.42 581.365 167.999 552.57 168.809 549.116L170.776 548.684C172.014 561.117 170.877 569.851 171.123 581.733C171.788 620.256 171.84 658.788 171.279 697.313L171.167 886.392C171.16 894.032 171.641 901.726 171.887 909.432C172.279 921.723 170.605 937.764 171.995 949.916C172.86 957.483 170.743 991.451 172.497 996.191C179.544 997.003 189.324 995.428 196.705 995.587C216.532 996.015 236.342 995.493 256.174 995.967C262.371 996.115 267.18 994.938 272.784 998.408C274.462 1000.15 276.666 1003.31 278.887 1005.68C278.956 1000.5 279.094 996.107 279.455 990.91C281.354 998.362 281.403 1002.38 277.547 1009.17L277.265 1009.65C273.043 1009.3 265.513 1009.77 261.031 1009.72C251.11 1009.61 241.166 1009.79 231.248 1009.99C210.18 1010.36 189.106 1010.22 168.045 1009.55Z"/><path fill="#1E599F" d="M272.784 998.408C272.146 993.407 272.583 977.347 272.591 971.44L272.555 916.248L273.48 706.201C274.908 708.982 276.349 711.41 277.62 714.306C276.665 725.82 278.93 729.036 278.97 739.505L279.943 821.395C280.12 831.793 280.626 841.843 280.632 852.292C281.575 872.925 280.803 898.442 281.068 919.56L281.61 968.274C281.765 977.048 282.901 1001.64 281.133 1008.61C279.849 1009.79 279.48 1009.42 277.265 1009.65L277.547 1009.17C281.403 1002.38 281.354 998.362 279.455 990.91C279.094 996.107 278.956 1000.5 278.887 1005.68C276.666 1003.31 274.462 1000.15 272.784 998.408Z"/><path fill="#000324" d="M280.632 852.292C281.575 872.925 280.803 898.442 281.068 919.56L281.61 968.274C281.765 977.048 282.901 1001.64 281.133 1008.61C279.849 1009.79 279.48 1009.42 277.265 1009.65L277.547 1009.17C281.403 1002.38 281.354 998.362 279.455 990.91C278.908 977.798 279.426 964.44 279.433 951.306C279.452 918.264 279.971 885.315 280.632 852.292Z"/><path fill="#000324" d="M281.125 718.117C292.369 721.106 298.21 733.861 306.067 740.945C312.339 746.6 316.587 751.21 322.371 757.28L343.603 779.235C346.416 782.128 350.131 784.725 352.848 787.48C356.129 790.806 359.153 794.59 362.497 798.004L387.022 822.555L406.78 842.972C410.155 846.527 422.04 859.413 426.251 861.094L426.613 860.624C426.195 859.377 425.793 858.281 425.528 856.986L425.761 856.812C426.741 859.047 427.171 860.348 428.711 862.27L429.364 861.972C429.656 860.982 430.002 859.935 430.203 858.931C430.704 861.806 431.09 869.894 430.874 872.707L430.328 872.599L429.708 870.043C428.744 870.522 429.211 870.454 428.336 870.4C422.712 863.92 417.149 860.217 411.364 854.278L337.458 779.304L310.567 751.209C304.988 745.487 298.922 739.996 293.533 734.085C291.082 731.399 288.798 728.566 286.691 725.602C284.101 721.887 284.797 721.398 281.125 718.117Z"/><path fill="#087FD0" d="M172.398 549.008C187.115 549.035 256.005 547.733 264.59 550.826C258.863 551.782 175.969 551.683 172.3 550.817L171.891 550.02L172.398 549.008Z"/><defs><linearGradient id="gradient_3" gradientUnits="userSpaceOnUse" x1="556.5141" y1="702.82825" x2="495.99911" y2="461.97516"><stop offset="0" stop-color="#004DB2"/><stop offset="1" stop-color="#03A1FF"/></linearGradient></defs><path fill="url(#gradient_3)" d="M492.165 33.2798C503.493 26.9843 506.326 26.8033 518.58 27.4955C521.444 27.4013 523.384 27.3826 526.27 27.5434L526.675 27.6821C531.257 29.212 535.772 29.878 540.591 31.7143C552.513 36.2566 561.935 44.8252 567.8 56.0356C573.818 67.5383 570.672 77.2824 571.981 89.0997C572.08 98.13 572.068 107.161 571.943 116.191C572.26 129.842 571.872 144.627 571.769 158.353L571.342 228.269L571.29 277.476C571.305 284.563 571.671 295.011 571.335 301.853L571.94 401.986C572.035 403.999 572.063 405.639 572.421 407.629C572.422 405.242 572.297 399.746 572.672 397.671L573.287 397.716C574.633 399.291 574.806 399.548 575.508 401.492C577.521 400.501 575.243 386.49 576.725 382.791C577.966 383.13 578.077 383.988 579 385.46L579.074 411.645C579.905 400.617 578.481 381.053 580.001 371.27C580.498 389.86 579.326 412.111 580.344 430.046C579.92 453.329 579.704 481.772 580.289 505.004C580.447 542.899 580.409 580.795 580.174 618.69C580.132 626.124 580.911 653.768 579.157 659.65C578.159 661.031 576.994 662.778 575.813 663.939C571.561 670.894 552.121 691.119 545.565 696.439C540.793 702.398 529.005 713.876 522.81 718.862C522.09 719.442 520.312 719.782 519.347 719.921C511.667 717.176 505.323 710.676 500.206 704.598C498.09 702.883 484.612 689.441 483.266 687.492C475.303 680.016 466.858 672.316 459.585 664.223C458.696 658.671 458.814 649.921 458.812 644.125L458.846 616.784C458.881 590.828 458.332 562.713 459.018 536.948C458.679 533.053 458.888 525.462 458.893 521.22L458.954 490.018C458.981 467.327 458.263 441.058 459.048 418.784C458.487 406.623 458.97 389.735 458.965 377.218L458.912 296.687L458.883 169.44C458.879 145.869 458.593 121.676 458.952 98.1448C458.73 90.4019 458.352 81.803 460.204 74.3346C461.589 64.5575 472.52 47.4169 480.806 41.0682C485.007 37.4111 487.102 35.4769 492.165 33.2798Z"/><defs><linearGradient id="gradient_4" gradientUnits="userSpaceOnUse" x1="512.1178" y1="101.56833" x2="535.2326" y2="346.96002"><stop offset="0" stop-color="#0098E2"/><stop offset="1" stop-color="#61FFFF"/></linearGradient></defs><path fill="url(#gradient_4)" d="M492.165 33.2798C503.493 26.9843 506.326 26.8033 518.58 27.4955C521.444 27.4013 523.384 27.3826 526.27 27.5434L526.675 27.6821C531.257 29.212 535.772 29.878 540.591 31.7143C552.513 36.2566 561.935 44.8252 567.8 56.0356C573.818 67.5383 570.672 77.2824 571.981 89.0997C572.08 98.13 572.068 107.161 571.943 116.191C572.26 129.842 571.872 144.627 571.769 158.353L571.342 228.269L571.29 277.476C571.305 284.563 571.671 295.011 571.335 301.853C571.052 303.754 570.872 315.603 570.789 315.734C561.351 330.658 538.365 351.561 518.93 347.092C515.236 346.242 507.457 344.451 504.877 345.827C503.628 345.299 503.834 345.019 502.968 344.463C498.19 341.397 491.109 343.375 486.191 339.227C484.777 338.035 477.142 337.731 476.379 336.567C476.446 329.57 476.601 322.344 476.417 315.37C476.547 313.345 476.13 313.956 477.098 312.686C481.939 311.822 487.774 317.3 493.295 319.63C505.024 324.58 516.419 330.413 529.326 325.461C541.326 321.198 552.603 311.406 559.506 300.801C561.515 297.716 566.251 288.219 568.271 285.186C570.77 281.431 569.893 260.736 567.599 256.503C566.006 253.565 554.099 242.915 549.76 242.193C532.282 236.6 521.535 239.143 505.656 246.376L504.913 245.84C502.426 245.83 482.247 261.625 478.509 263.533C478.069 263.758 477.499 263.266 476.915 262.941C475.174 259.669 476.577 256.15 475.581 251.311C476.115 237.978 475.469 220.59 475.466 206.758C476.269 193.449 474.961 177.085 475.319 163.499C475.45 158.511 475.03 153.226 475.473 148.22C475.331 144.181 475.306 140.138 475.398 136.097C475.933 131.158 475.526 120.272 475.57 114.92C475.733 95.0439 474.328 74.7381 475.188 54.8739C474.234 54.0106 473.97 54.0054 472.764 53.4909C473.067 51.8401 479.464 42.9815 480.806 41.0682C485.007 37.4111 487.102 35.4769 492.165 33.2798Z"/><defs><linearGradient id="gradient_5" gradientUnits="userSpaceOnUse" x1="518.95361" y1="29.065971" x2="524.54865" y2="105.81349"><stop offset="0" stop-color="#03579D"/><stop offset="1" stop-color="#0288D1"/></linearGradient></defs><path fill="url(#gradient_5)" d="M492.165 33.2798C503.493 26.9843 506.326 26.8033 518.58 27.4955C521.444 27.4013 523.384 27.3826 526.27 27.5434L526.675 27.6821C531.257 29.212 535.772 29.878 540.591 31.7143C552.513 36.2566 561.935 44.8252 567.8 56.0356C573.818 67.5383 570.672 77.2824 571.981 89.0997C572.08 98.13 572.068 107.161 571.943 116.191C570.589 120.942 571.524 130.126 571.071 135.601C570.932 130.946 571.483 105.007 570.3 102.887C566.611 100.656 555.992 98.0039 551.633 98.4658C529.625 100.798 507.513 103.947 485.526 106.76C482.04 107.206 480.295 107.429 476.854 107.54C474.762 110.718 477.547 141.709 475.473 148.22C475.331 144.181 475.306 140.138 475.398 136.097C475.933 131.158 475.526 120.272 475.57 114.92C475.733 95.0439 474.328 74.7381 475.188 54.8739C474.234 54.0106 473.97 54.0054 472.764 53.4909C473.067 51.8401 479.464 42.9815 480.806 41.0682C485.007 37.4111 487.102 35.4769 492.165 33.2798Z"/><path fill="#087FD0" d="M492.165 33.2798C503.493 26.9843 506.326 26.8033 518.58 27.4955C515.101 29.3365 508.482 29.4646 503.595 31.0969C497.801 33.032 489.068 39.794 484.74 41.2821C487.742 37.0149 489.576 36.3988 492.165 33.2798Z"/><defs><linearGradient id="gradient_6" gradientUnits="userSpaceOnUse" x1="531.79041" y1="472.00275" x2="515.90778" y2="323.22104"><stop offset="0" stop-color="#03A4FE"/><stop offset="1" stop-color="#44F4FC"/></linearGradient></defs><path fill="url(#gradient_6)" d="M476.417 315.37C476.601 322.344 476.446 329.57 476.379 336.567C477.142 337.731 484.777 338.035 486.191 339.227C491.109 343.375 498.19 341.397 502.968 344.463C503.834 345.019 503.628 345.299 504.877 345.827C507.457 344.451 515.236 346.242 518.93 347.092C538.365 351.561 561.351 330.658 570.789 315.734C570.872 315.603 571.052 303.754 571.335 301.853L571.94 401.986C571.293 408.85 571.668 416.785 571.515 423.763C571.166 439.649 571.971 456.473 571.386 472.303C569.84 467.998 571.432 461.652 570.705 457.056C567.382 458.135 561.811 464.141 557.159 466.349C540.432 474.289 523.8 471.92 505.793 471.796C503.799 470.096 504.946 470.474 502.973 470.563C499.314 470.633 494.436 472.31 490.886 472.169C488.251 472.063 483.023 469.082 480.307 468.394C478.894 468.036 477.587 468.144 476.429 467.692C475.28 472.78 477.303 484.168 475.51 488.703C474.975 477.785 475.355 464.014 475.373 453L475.441 387.548C475.466 375.335 475.802 361.971 475.411 349.84C475.418 341.591 475.476 333.342 475.586 325.093C476.041 322.785 476.249 317.895 476.417 315.37Z"/><path fill="#65F6FB" d="M466.513 305.833C465.884 274.511 465.876 245.531 468.608 214.261C469.813 216.909 467.977 280.838 469.464 291.881L469.803 291.609C470.681 289.211 470.518 266.351 471.068 262.252C471.228 261.057 471.055 257.102 471.671 256.173C473.654 253.183 474.298 253.991 474.369 250.182C474.601 237.867 474.53 225.474 474.64 213.153C474.673 209.338 474.176 206.176 474.44 202.358L475.007 203.196L474.549 202.231C475.135 204.059 475.208 204.831 475.466 206.758C475.469 220.59 476.115 237.978 475.581 251.311C476.577 256.15 475.174 259.669 476.915 262.941C477.499 263.266 478.069 263.758 478.509 263.533C482.247 261.625 502.426 245.83 504.913 245.84L505.656 246.376C521.535 239.143 532.282 236.6 549.76 242.193C554.099 242.915 566.006 253.565 567.599 256.503C569.893 260.736 570.77 281.431 568.271 285.186C566.251 288.219 561.515 297.716 559.506 300.801C552.603 311.406 541.326 321.198 529.326 325.461C516.419 330.413 505.024 324.58 493.295 319.63C487.774 317.3 481.939 311.822 477.098 312.686C476.13 313.956 476.547 313.345 476.417 315.37C476.249 317.895 476.041 322.785 475.586 325.093C475.476 333.342 475.418 341.591 475.411 349.84C473.632 362.584 475.047 368.99 474.261 380.366L473.966 380.169C473.407 372.071 469.563 360.325 468.877 352.368C467.696 338.673 468.119 319.739 466.579 306.376L466.513 305.833Z"/><path fill="#01377B" d="M460.204 74.3346C461.589 64.5575 472.52 47.4169 480.806 41.0682C479.464 42.9815 473.067 51.8401 472.764 53.4909C473.97 54.0054 474.234 54.0106 475.188 54.8739C474.328 74.7381 475.733 95.0439 475.57 114.92C475.526 120.272 475.933 131.158 475.398 136.097C475.306 140.138 475.331 144.181 475.473 148.22C475.03 153.226 475.45 158.511 475.319 163.499C474.961 177.085 476.269 193.449 475.466 206.758C475.208 204.831 475.135 204.059 474.549 202.231L475.007 203.196L474.44 202.358C474.176 206.176 474.673 209.338 474.64 213.153C474.53 225.474 474.601 237.867 474.369 250.182C474.298 253.991 473.654 253.183 471.671 256.173C471.055 257.102 471.228 261.057 471.068 262.252C470.518 266.351 470.681 289.211 469.803 291.609L469.464 291.881C467.977 280.838 469.813 216.909 468.608 214.261C465.876 245.531 465.884 274.511 466.513 305.833C465.628 322.411 466.972 340.112 465.976 356.58L465.589 356.593L465.209 356.065L464.753 480.748C464.613 493.718 465.161 508.435 464.587 521.189C464.087 519.559 464.321 518.648 463.457 517.012C463.29 524.136 463.631 531.599 463.625 538.805C463.616 564.221 463.859 589.635 464.356 615.045C464.526 625.335 463.919 650.521 465.26 659.636C482.014 670.942 492.38 683.411 506.647 697.692C511.425 702.474 518.726 710.954 523.975 714.43C528.452 706.186 535.332 703.812 541.554 696.005L541.629 697.837C543.159 698.928 542.231 696.418 545.565 696.439C540.793 702.398 529.005 713.876 522.81 718.862C522.09 719.442 520.312 719.782 519.347 719.921C511.667 717.176 505.323 710.676 500.206 704.598C498.09 702.883 484.612 689.441 483.266 687.492C475.303 680.016 466.858 672.316 459.585 664.223C458.696 658.671 458.814 649.921 458.812 644.125L458.846 616.784C458.881 590.828 458.332 562.713 459.018 536.948C458.679 533.053 458.888 525.462 458.893 521.22L458.954 490.018C458.981 467.327 458.263 441.058 459.048 418.784C458.487 406.623 458.97 389.735 458.965 377.218L458.912 296.687L458.883 169.44C458.879 145.869 458.593 121.676 458.952 98.1448C458.73 90.4019 458.352 81.803 460.204 74.3346Z"/><path fill="#4CD5FA" d="M465.209 356.065C463.911 337.087 463.886 311.375 463.815 292.122C463.803 245.711 464.801 199.305 466.808 152.937C467.53 136.899 469.624 121.173 468.662 105.086C468.339 99.6788 467.132 86.204 472.354 83.1439L473.195 83.3767C473.969 84.4268 474.283 85.3266 474.314 86.627C474.719 103.258 473.569 119.477 475.398 136.097C475.306 140.138 475.331 144.181 475.473 148.22C475.03 153.226 475.45 158.511 475.319 163.499C474.961 177.085 476.269 193.449 475.466 206.758C475.208 204.831 475.135 204.059 474.549 202.231L475.007 203.196L474.44 202.358C474.176 206.176 474.673 209.338 474.64 213.153C474.53 225.474 474.601 237.867 474.369 250.182C474.298 253.991 473.654 253.183 471.671 256.173C471.055 257.102 471.228 261.057 471.068 262.252C470.518 266.351 470.681 289.211 469.803 291.609L469.464 291.881C467.977 280.838 469.813 216.909 468.608 214.261C465.876 245.531 465.884 274.511 466.513 305.833C465.628 322.411 466.972 340.112 465.976 356.58L465.589 356.593L465.209 356.065Z"/><path fill="#20A0E5" d="M472.764 53.4909C473.97 54.0054 474.234 54.0106 475.188 54.8739C474.328 74.7381 475.733 95.0439 475.57 114.92C475.526 120.272 475.933 131.158 475.398 136.097C473.569 119.477 474.719 103.258 474.314 86.627C474.283 85.3266 473.969 84.4268 473.195 83.3767L472.354 83.1439C467.132 86.204 468.339 99.6788 468.662 105.086C469.624 121.173 467.53 136.899 466.808 152.937C464.801 199.305 463.803 245.711 463.815 292.122C463.886 311.375 463.911 337.087 465.209 356.065L464.753 480.748C464.613 493.718 465.161 508.435 464.587 521.189C464.087 519.559 464.321 518.648 463.457 517.012C462.89 512.432 463.095 501.678 463.069 496.643L462.827 461.12L462.201 351.036C461.921 288.249 462.097 225.461 462.731 162.676L463.191 109.814C463.372 87.9556 461.411 73.4773 472.764 53.4909Z"/><path fill="#022A68" d="M459.048 418.784C460.65 411.479 459.152 396.926 459.697 388.581C459.764 406.71 459.799 424.846 459.835 442.979C459.866 458.945 461.752 475.433 461.717 491.283C461.679 508.341 461.567 525.318 461.71 542.403C462.261 581.915 462.49 621.431 462.397 660.947C467.401 665.387 483.807 679.455 486.018 684.241C493.581 693.101 499.171 695.279 506.914 706.432C505.192 705.456 502.131 703.96 500.206 704.598C498.09 702.883 484.612 689.441 483.266 687.492C475.303 680.016 466.858 672.316 459.585 664.223C458.696 658.671 458.814 649.921 458.812 644.125L458.846 616.784C458.881 590.828 458.332 562.713 459.018 536.948C458.679 533.053 458.888 525.462 458.893 521.22L458.954 490.018C458.981 467.327 458.263 441.058 459.048 418.784Z"/><path fill="#011845" d="M459.018 536.948C459.907 540.411 459.277 547.408 459.374 551.362C459.588 560.028 458.996 572.671 459.894 581.061C459.959 577.051 459.64 564.349 459.957 561.366C460.84 564.15 460.077 576.711 460.313 580.495C461.986 607.348 460.298 634.514 460.793 661.288C463.118 663.619 476.91 676.372 477.432 677.787C480.188 679.866 483.228 682.271 486.018 684.241C493.581 693.101 499.171 695.279 506.914 706.432C505.192 705.456 502.131 703.96 500.206 704.598C498.09 702.883 484.612 689.441 483.266 687.492C475.303 680.016 466.858 672.316 459.585 664.223C458.696 658.671 458.814 649.921 458.812 644.125L458.846 616.784C458.881 590.828 458.332 562.713 459.018 536.948Z"/><path fill="#011845" d="M500.206 704.598C502.131 703.96 505.192 705.456 506.914 706.432C509.041 708.879 518.44 718.582 519.347 719.921C511.667 717.176 505.323 710.676 500.206 704.598Z"/><path fill="#022A68" d="M460.204 74.3346L461.328 75.545C461.087 80.4853 461.028 94.5426 458.952 98.1448C458.73 90.4019 458.352 81.803 460.204 74.3346Z"/><defs><linearGradient id="gradient_7" gradientUnits="userSpaceOnUse" x1="452.7402" y1="457.23859" x2="488.83768" y2="449.66473"><stop offset="0" stop-color="#1298F9"/><stop offset="1" stop-color="#3DF2FF"/></linearGradient></defs><path fill="url(#gradient_7)" d="M466.513 305.833L466.579 306.376C468.119 319.739 467.696 338.673 468.877 352.368C469.563 360.325 473.407 372.071 473.966 380.169L474.261 380.366C475.047 368.99 473.632 362.584 475.411 349.84C475.802 361.971 475.466 375.335 475.441 387.548L475.373 453C475.355 464.014 474.975 477.785 475.51 488.703C474.693 509.676 475.329 535.084 475.322 556.38L474.838 658.949C474.193 655.603 474.461 635.351 474.467 630.706L474.525 580.187C474.527 570.961 474.582 561.738 474.398 552.509C474.27 546.061 471.348 544.95 470.018 540.506C469.091 537.407 468.641 526.476 468.652 522.798C468.156 528.083 468.516 533.668 468.528 538.989C468.546 547.609 468.295 556.209 468.541 564.83C468.7 570.398 469.391 575.938 469.487 581.507C469.586 587.257 469.508 638.505 468.886 639.2L468.088 637.364C467.492 639.224 468.039 639.714 467.412 640.759L467.479 641.536C465.239 635.719 465.888 607.383 465.71 600.241C465.273 582.711 464.516 564.906 464.751 547.349C464.811 542.834 465.083 524.52 464.587 521.189C465.161 508.435 464.613 493.718 464.753 480.748L465.209 356.065L465.589 356.593L465.976 356.58C466.972 340.112 465.628 322.411 466.513 305.833Z"/><path fill="#37BCF4" d="M579 385.46L579.074 411.645C579.905 400.617 578.481 381.053 580.001 371.27C580.498 389.86 579.326 412.111 580.344 430.046C579.92 453.329 579.704 481.772 580.289 505.004C578.216 508.81 580.854 582.022 579.611 591.843C578.03 604.333 582.322 650.331 577.794 659.798C576.158 661.169 574.335 661.261 572.174 661.688C571.348 646.663 571.785 626.658 571.719 611.28L571.559 516.316C571.522 501.8 571.758 486.741 571.386 472.303C571.971 456.473 571.166 439.649 571.515 423.763C571.668 416.785 571.293 408.85 571.94 401.986C572.035 403.999 572.063 405.639 572.421 407.629C572.422 405.242 572.297 399.746 572.672 397.671L573.287 397.716C574.633 399.291 574.806 399.548 575.508 401.492C577.521 400.501 575.243 386.49 576.725 382.791C577.966 383.13 578.077 383.988 579 385.46Z"/><path fill="#01377B" d="M541.554 696.005C544.721 691.014 569.985 666.614 575.813 663.939C571.561 670.894 552.121 691.119 545.565 696.439C542.231 696.418 543.159 698.928 541.629 697.837L541.554 696.005Z"/><defs><linearGradient id="gradient_8" gradientUnits="userSpaceOnUse" x1="678.66992" y1="462.05994" x2="835.49579" y2="108.5439"><stop offset="0" stop-color="#075DB5"/><stop offset="1" stop-color="#089FE5"/></linearGradient></defs><path fill="url(#gradient_8)" d="M738.226 19.037C746.23 18.7393 754.033 18.7254 761.99 18.4711C772.496 18.1354 783.787 16.9032 794.287 16.9836C805.882 17.0724 817.783 18.1746 829.341 19.0363C833.968 19.3812 842.868 18.4122 847.115 19.5483L847.065 19.8725C847.841 20.6671 848.625 21.4176 848.705 22.5924C849.12 28.6226 849.062 35.2183 849.098 41.2579C849.152 55.359 849.119 69.4603 848.999 83.5611L848.927 203.006L848.931 243.329C848.934 249.567 848.662 258.656 849.036 264.667C848.321 284.716 849.34 305.983 848.87 326.192L848.968 429.85C848.969 446.07 849.67 468.026 848.933 483.676C849.042 486.817 849.398 495.286 847.968 495.62C839.054 497.707 805.962 496.84 798.104 496.839L722.532 496.988C708.234 484.068 695.362 470.284 681.84 456.662L612.778 387.466C609.547 384.219 601.773 377.061 600.712 372.941C600.409 371.766 600.433 366.821 600.436 365.3C600.911 346.298 600.522 325.741 600.489 306.649C600.449 283.802 600.839 260.255 600.417 237.5C600.607 232.493 600.501 227.506 600.441 222.497C601.376 221.254 600.796 221.675 602.207 221.14C604.459 222.548 604.581 224.103 605.39 226.828L607.448 226.296C614.072 230.455 616.53 233.949 622.151 238.519C641.694 254.408 657.089 274.144 676.73 289.905C679.371 292.024 682.059 294.753 684.594 297.064C688.389 301.49 695.622 308.166 700.124 312.377C709.207 320.873 723.417 336.147 733.099 343.143C734.184 343.611 734.767 344.045 735.85 343.998C735.869 339.073 734.853 334.03 735.028 329.183C736.582 286.131 735.754 243.05 736.008 199.98C736.254 191.471 734.681 182.566 734.781 174.127C734.962 158.82 733.616 142.611 734.297 127.384C734.96 112.54 734.954 98.6755 734.417 83.867C733.566 81.1289 734.315 32.0819 734.3 25.892C734.298 24.8856 734.734 21.9145 735.364 20.945C736.471 19.2398 736.459 19.5641 738.226 19.037Z"/><path fill="#20A0E5" d="M743.389 23.1317C751.168 23.8898 763.845 23.5291 772.029 23.5284L821.391 23.5147C826.712 23.513 837.703 23.2017 842.551 23.6109L842.483 111.207L842.498 139.857C842.496 143.841 842.682 150.637 842.396 154.342C841.313 153.365 841.785 135.534 841.767 132.346C841.526 135.382 841.38 138.174 840.786 141.169C839.798 138.984 840.409 129.014 839.137 127.034L837.936 126.805C836.068 127.645 836.898 127.037 835.63 129.019C835.018 127.481 835.527 127.965 834.39 127.124C831.985 128.772 832.103 131.064 831.712 133.754C829.564 134.661 824.54 137.373 822.509 137.161C814.863 136.366 802.372 130.999 796.781 126.042C796.564 124.652 797.313 124.025 798.174 122.451C795.344 118.654 793.551 112.994 791.723 110.951L790.901 113.188C789.028 112.096 789.75 108.153 787.572 106.528L786.814 106.839C786.273 108.399 786.42 108.434 785.404 109.704C779.455 99.2733 774.346 100.275 769.355 90.0951C770.511 88.4876 772.196 86.6205 773.506 85.0816C767.912 81.5239 762.358 77.9022 756.847 74.2173L755.903 75.8772C755.331 74.8605 755.591 75.1491 754.75 74.3672L753.886 75.7401L753.085 74.789L752.397 74.8746L752.289 76.2064L751.299 75.6803C750.296 76.542 750.865 77.8897 750.104 80.0173L748.879 80.5579L748.044 80.2165C745.678 71.6831 748.045 58.0324 746.714 53.2072C746.243 61.2741 747.417 87.8209 745.135 93.0838L744.421 93.105C742.912 90.734 743.106 89.2508 742.569 86.3034C741.629 66.8518 743.099 44.8279 742.275 24.8376C742.539 23.5678 742.303 24.1788 743.389 23.1317Z"/><defs><linearGradient id="gradient_9" gradientUnits="userSpaceOnUse" x1="665.55371" y1="463.32343" x2="752.55365" y2="309.35046"><stop offset="0" stop-color="#051E57"/><stop offset="1" stop-color="#06427C"/></linearGradient></defs><path fill="url(#gradient_9)" d="M600.441 222.497C602.479 223.795 602.642 224.358 603.336 226.913L604.25 227.88C607.363 236.91 606.487 260.286 606.494 270.898L606.504 311.035C606.5 325.972 607.113 345.361 606.451 359.773C606.466 360.795 606.481 365.418 607.027 366.028C629.06 390.65 654.563 413.104 678.024 436.448L706.448 464.608C712.87 471.052 719.804 478.413 726.462 484.512L805.929 484.514C812.677 484.502 837.15 483.994 842.405 484.918C842.661 487.338 842.658 487.487 843.649 489.668C844.405 491.018 844.763 492.103 846.124 492.714C846.954 491.249 846.636 492.021 846.558 490.056C846.895 488.394 847.063 485.767 847.23 484.009L847.598 483.865C847.74 486.42 847.292 488.956 847.481 492.04L848.362 492.193C849.262 489.691 847.65 485.844 848.933 483.676C849.042 486.817 849.398 495.286 847.968 495.62C839.054 497.707 805.962 496.84 798.104 496.839L722.532 496.988C708.234 484.068 695.362 470.284 681.84 456.662L612.778 387.466C609.547 384.219 601.773 377.061 600.712 372.941C600.409 371.766 600.433 366.821 600.436 365.3C600.911 346.298 600.522 325.741 600.489 306.649C600.449 283.802 600.839 260.255 600.417 237.5C600.607 232.493 600.501 227.506 600.441 222.497Z"/><path fill="#01377B" d="M603.336 226.913L604.25 227.88C607.363 236.91 606.487 260.286 606.494 270.898L606.504 311.035C606.5 325.972 607.113 345.361 606.451 359.773C602.925 349.64 603.747 308.04 603.753 295.377C603.755 289.573 603.354 282.622 603.291 276.681C603.226 270.441 603.846 263.309 603.803 256.997C603.735 246.983 603.534 236.923 603.336 226.913Z"/><path fill="#37BCF4" d="M738.226 19.037C746.23 18.7393 754.033 18.7254 761.99 18.4711C772.496 18.1354 783.787 16.9032 794.287 16.9836C805.882 17.0724 817.783 18.1746 829.341 19.0363C833.968 19.3812 842.868 18.4122 847.115 19.5483L847.065 19.8725C847.841 20.6671 848.625 21.4176 848.705 22.5924C849.12 28.6226 849.062 35.2183 849.098 41.2579C849.152 55.359 849.119 69.4603 848.999 83.5611L848.927 203.006L848.931 243.329C848.934 249.567 848.662 258.656 849.036 264.667C848.321 284.716 849.34 305.983 848.87 326.192L848.968 429.85C848.969 446.07 849.67 468.026 848.933 483.676C847.65 485.844 849.262 489.691 848.362 492.193L847.481 492.04C847.292 488.956 847.74 486.42 847.598 483.865L847.23 484.009C847.063 485.767 846.895 488.394 846.558 490.056C846.636 492.021 846.954 491.249 846.124 492.714C844.763 492.103 844.405 491.018 843.649 489.668C842.658 487.487 842.661 487.338 842.405 484.918C843.162 476.096 842.551 457.137 842.535 447.362L842.528 374.694L842.396 154.342C842.682 150.637 842.496 143.841 842.498 139.857L842.483 111.207L842.551 23.6109C837.703 23.2017 826.712 23.513 821.391 23.5147L772.029 23.5284C763.845 23.5291 751.168 23.8898 743.389 23.1317C742.303 24.1788 742.539 23.5678 742.275 24.8376C742.231 23.7121 739.771 23.4754 738.368 20.4437L738.226 19.037Z"/><path fill="#087FD0" d="M847.065 19.8725C847.841 20.6671 848.625 21.4176 848.705 22.5924C849.12 28.6226 849.062 35.2183 849.098 41.2579C849.152 55.359 849.119 69.4603 848.999 83.5611L848.927 203.006L848.931 243.329C848.934 249.567 848.662 258.656 849.036 264.667C848.321 284.716 849.34 305.983 848.87 326.192L848.968 429.85C848.969 446.07 849.67 468.026 848.933 483.676C847.65 485.844 849.262 489.691 848.362 492.193L847.481 492.04C847.292 488.956 847.74 486.42 847.598 483.865L847.23 484.009C847.063 485.767 846.895 488.394 846.558 490.056C846.636 492.021 846.954 491.249 846.124 492.714C844.763 492.103 844.405 491.018 843.649 489.668C845.636 486.706 845.146 435.776 845.175 428.086L845.599 342.75L846.395 141.297L846.49 66.4838C846.51 50.9948 845.978 35.288 847.065 19.8725Z"/><path fill="#1E599F" d="M846.558 490.056C846.331 484.463 846.659 476.441 846.653 470.596L846.951 413.213L847.02 364.973C847.067 353.873 846.964 341.782 847.907 330.792L847.926 331.2C848.203 329.309 848.431 328.051 848.87 326.192L848.968 429.85C848.969 446.07 849.67 468.026 848.933 483.676C847.65 485.844 849.262 489.691 848.362 492.193L847.481 492.04C847.292 488.956 847.74 486.42 847.598 483.865L847.23 484.009C847.063 485.767 846.895 488.394 846.558 490.056Z"/><path fill="#65F6FB" d="M743.389 23.1317L742.453 22.3205L742.53 21.5452C746.66 20.4608 842.646 20.584 844.808 21.5671C844.973 21.6421 845.119 21.7529 845.275 21.8458L845.285 22.5951C844.118 23.55 844.087 23.4169 842.551 23.6109C837.703 23.2017 826.712 23.513 821.391 23.5147L772.029 23.5284C763.845 23.5291 751.168 23.8898 743.389 23.1317Z"/><defs><linearGradient id="gradient_10" gradientUnits="userSpaceOnUse" x1="731.86121" y1="185.9375" x2="745.63879" y2="185.5625"><stop offset="0" stop-color="#04356A"/><stop offset="1" stop-color="#095296"/></linearGradient></defs><path fill="url(#gradient_10)" d="M734.417 83.867C733.566 81.1289 734.315 32.0819 734.3 25.892C734.298 24.8856 734.734 21.9145 735.364 20.945C736.471 19.2398 736.459 19.5641 738.226 19.037L738.368 20.4437C739.771 23.4754 742.231 23.7121 742.275 24.8376C743.099 44.8279 741.629 66.8518 742.569 86.3034C742.491 109.677 742.943 347.493 741.904 349.34L740.362 349.858C737.702 347.369 735.477 346.178 733.099 343.143C734.184 343.611 734.767 344.045 735.85 343.998C735.869 339.073 734.853 334.03 735.028 329.183C736.582 286.131 735.754 243.05 736.008 199.98C736.254 191.471 734.681 182.566 734.781 174.127C734.962 158.82 733.616 142.611 734.297 127.384C734.96 112.54 734.954 98.6755 734.417 83.867Z"/><path fill="#1E599F" d="M734.417 83.867C733.566 81.1289 734.315 32.0819 734.3 25.892C734.298 24.8856 734.734 21.9145 735.364 20.945C736.471 19.2398 736.459 19.5641 738.226 19.037L738.368 20.4437C737.974 20.5905 736.757 20.8701 736.747 21.3158C736.258 43.1832 736.262 65.2916 735.245 87.1931C734.257 85.7257 735.077 85.6601 734.417 83.867Z"/><path fill="#4CD5FA" d="M600.441 222.497C601.376 221.254 600.796 221.675 602.207 221.14C604.459 222.548 604.581 224.103 605.39 226.828L607.448 226.296C614.072 230.455 616.53 233.949 622.151 238.519C641.694 254.408 657.089 274.144 676.73 289.905C679.371 292.024 682.059 294.753 684.594 297.064C688.389 301.49 695.622 308.166 700.124 312.377C709.207 320.873 723.417 336.147 733.099 343.143C735.477 346.178 737.702 347.369 740.362 349.858C742.149 352.531 743.272 355.564 744.54 358.54C737.627 351.509 730.756 346.457 723.94 339.829C697.291 313.911 669.613 288.397 642.197 263.222C634.797 256.435 627.362 249.685 619.893 242.974C615.291 238.835 607.731 232.567 604.25 227.88L603.336 226.913C602.642 224.358 602.479 223.795 600.441 222.497Z"/><defs><linearGradient id="gradient_11" gradientUnits="userSpaceOnUse" x1="83.830978" y1="366.815" x2="298.37805" y2="203.07889"><stop offset="0" stop-color="#07387C"/><stop offset="1" stop-color="#0366B9"/></linearGradient></defs><path fill="url(#gradient_11)" d="M169.952 20.197L170.629 22.7491C175.607 23.9576 188.194 23.3969 193.782 23.5073C210.638 23.8403 228.494 23.0146 245.237 23.5755C250.625 23.0466 257.023 23.8502 263.219 23.1081C267.087 22.8889 270.814 22.5988 274.044 25.0898C290.047 37.4282 304.258 54.0403 318.895 67.765L424.187 165.497C425.383 166.454 426.608 167.405 427.757 168.415C430.105 170.835 430.731 171.846 431.768 175.066C433.843 182.271 435.088 199.02 435.426 206.971C436.779 238.811 433.278 270.712 434.211 302.536C434.461 311.015 437.035 318.116 433.884 326.506L433.304 328.245L432.53 328.461C424.95 324.345 409.104 305.351 402.218 299.032C392.749 290.343 383.66 280.611 374.623 271.614L309.624 206.959C300.707 197.986 292.585 192.255 285.745 180.944C282.839 173.442 281.146 173.847 276.691 168.434L276.349 168.012L275.75 168.091C274.006 175.208 277.949 188.323 278.632 195.878C279.021 200.19 278.727 204.445 278.68 208.749C278.441 230.899 279.402 253.267 279.913 275.416C280.074 282.403 279.605 290.225 279.569 297.333C279.432 316.657 279.581 335.982 280.014 355.302C280.767 359.301 280.582 370.609 280.589 375.196L280.677 411.247L281.483 464.069C281.58 471.812 282.59 482.565 281.293 489.947C281.087 491.819 280.7 493.702 279.398 495.078C277.472 495.934 274.079 496.246 271.945 496.281C246.462 496.697 220.951 496.326 195.462 496.463C186.509 496.511 177.52 496.597 168.595 495.917C168.157 488.801 168.387 479.677 168.39 472.459L168.414 433.041L168.465 312.218L168.498 122.59C168.496 91.2281 168.429 59.8188 168.557 28.4568C168.57 25.1954 168.529 23.1591 169.952 20.197Z"/><path fill="#087FD0" d="M263.219 23.1081C267.087 22.8889 270.814 22.5988 274.044 25.0898C290.047 37.4282 304.258 54.0403 318.895 67.765L424.187 165.497C425.383 166.454 426.608 167.405 427.757 168.415C430.105 170.835 430.731 171.846 431.768 175.066C433.843 182.271 435.088 199.02 435.426 206.971C436.779 238.811 433.278 270.712 434.211 302.536C434.461 311.015 437.035 318.116 433.884 326.506L433.304 328.245L432.53 328.461C424.95 324.345 409.104 305.351 402.218 299.032C392.749 290.343 383.66 280.611 374.623 271.614L309.624 206.959C300.707 197.986 292.585 192.255 285.745 180.944C282.839 173.442 281.146 173.847 276.691 168.434L276.349 168.012L275.75 168.091L274.339 164.596L274.672 164.172L274.31 163.43L273.366 163.416C272.052 165.133 272.204 179.23 272.295 182.195L271.615 182.185C271.15 181.044 269.88 178.554 269.673 177.606C268.878 173.95 268.157 174.03 265.5 171.797C264.435 170.901 263.227 167.692 261.787 166.841C257.462 164.295 251.744 165.217 249.631 159.839C249.321 159.051 244.792 156.766 243.535 155.976C233.276 149.527 229.273 136.228 224.035 125.995C218.78 116.297 215.969 118.517 212.661 106.013C207.378 102.306 206.315 96.2888 202.083 92.1654C198.553 88.7256 199.678 83.5327 195.686 83.7355C194.643 83.1877 194.287 80.743 193.481 78.8941C192.533 78.635 190.23 78.0209 189.866 77.0193C188.488 73.2343 187.196 69.4911 185.46 65.8287C182.556 60.0813 182.663 50.757 178.46 45.7507C176.753 43.718 174.317 44.1862 171.541 40.2827C171.923 35.9439 171.823 28.5449 171.425 24.2766C188.482 23.6771 206.215 24.3071 223.302 24.0407C228.085 23.9661 241.343 24.3913 245.237 23.5755C250.625 23.0466 257.023 23.8502 263.219 23.1081Z"/><path fill="#01377B" d="M276.349 168.012L277.205 165.804C279.336 165.213 281.759 167.659 283.195 169.195C287.592 173.898 292.214 178.321 296.863 182.774C325.352 210.477 353.653 238.372 381.764 266.457L410.984 295.067C414.824 298.777 422.324 305.423 425.527 309.131L426.259 310.48C426.925 315.941 429.58 320.378 429.544 323.96C430.999 325.053 432.141 326.171 433.884 326.506L433.304 328.245L432.53 328.461C424.95 324.345 409.104 305.351 402.218 299.032C392.749 290.343 383.66 280.611 374.623 271.614L309.624 206.959C300.707 197.986 292.585 192.255 285.745 180.944C282.839 173.442 281.146 173.847 276.691 168.434L276.349 168.012Z"/><path fill="#000324" d="M285.745 180.944C296.919 190.272 310.248 205.136 321.183 215.782L407.915 301.089C414.418 307.456 422.61 317.689 429.544 323.96C430.999 325.053 432.141 326.171 433.884 326.506L433.304 328.245L432.53 328.461C424.95 324.345 409.104 305.351 402.218 299.032C392.749 290.343 383.66 280.611 374.623 271.614L309.624 206.959C300.707 197.986 292.585 192.255 285.745 180.944Z"/><path fill="#4CD5FA" d="M424.187 165.497C425.383 166.454 426.608 167.405 427.757 168.415C430.105 170.835 430.731 171.846 431.768 175.066C433.843 182.271 435.088 199.02 435.426 206.971C436.779 238.811 433.278 270.712 434.211 302.536C434.461 311.015 437.035 318.116 433.884 326.506C432.141 326.171 430.999 325.053 429.544 323.96C429.58 320.378 426.925 315.941 426.259 310.48L425.527 309.131L425.478 217.068L425.474 189.319C425.471 182.403 425.923 171.833 424.187 165.497Z"/><path fill="#087FD0" d="M431.768 175.066C433.843 182.271 435.088 199.02 435.426 206.971C436.779 238.811 433.278 270.712 434.211 302.536C434.461 311.015 437.035 318.116 433.884 326.506C432.141 326.171 430.999 325.053 429.544 323.96C429.58 320.378 426.925 315.941 426.259 310.48C427.192 311.885 429.133 315.036 430.143 316.134L430.371 320.967C432.335 313.139 431.422 285.545 431.538 275.463C431.922 242.182 431.011 208.339 431.768 175.066Z"/><path fill="#37BCF4" d="M424.187 165.497C425.383 166.454 426.608 167.405 427.757 168.415L426.464 168.816C425.54 174.398 426.848 179.146 427.31 184.581C427.593 187.914 426.879 191.971 427.181 195.364C427.912 203.581 427.732 211.378 427.365 219.601C426.943 229.063 427.398 238.798 427.279 248.28C427.219 252.755 428.39 274.985 427.124 276.924L426.556 276.337C426.131 276.856 425.752 305.766 426.885 308.215C428.091 310.82 430.133 310.512 430.143 316.134C429.133 315.036 427.192 311.885 426.259 310.48L425.527 309.131L425.478 217.068L425.474 189.319C425.471 182.403 425.923 171.833 424.187 165.497Z"/><defs><linearGradient id="gradient_12" gradientUnits="userSpaceOnUse" x1="52.429016" y1="153.37724" x2="346.36182" y2="417.31137"><stop offset="0" stop-color="black"/><stop offset="1" stop-color="#021D52"/></linearGradient></defs><path fill="url(#gradient_12)" d="M169.952 20.197L170.629 22.7491C171.458 38.209 170.859 57.9312 170.87 73.7586L171.011 170.334L171.954 484.544C195.684 484.288 219.417 484.239 243.149 484.396C249.063 484.402 268.675 483.417 273.013 484.902C274.949 487.695 276.131 489.417 278.414 491.947C278.731 492.247 278.54 492.041 278.928 492.682L279.27 493.255L280.079 492.9C280.215 491.66 280.353 490.774 280.582 489.547L281.293 489.947C281.087 491.819 280.7 493.702 279.398 495.078C277.472 495.934 274.079 496.246 271.945 496.281C246.462 496.697 220.951 496.326 195.462 496.463C186.509 496.511 177.52 496.597 168.595 495.917C168.157 488.801 168.387 479.677 168.39 472.459L168.414 433.041L168.465 312.218L168.498 122.59C168.496 91.2281 168.429 59.8188 168.557 28.4568C168.57 25.1954 168.529 23.1591 169.952 20.197Z"/><path fill="#20A0E5" d="M273.013 484.902L272.929 271.265L272.97 204.561C272.99 193.233 272.63 175.898 273.628 164.98L274.339 164.596L275.75 168.091C274.006 175.208 277.949 188.323 278.632 195.878C279.021 200.19 278.727 204.445 278.68 208.749C278.441 230.899 279.402 253.267 279.913 275.416C280.074 282.403 279.605 290.225 279.569 297.333C279.432 316.657 279.581 335.982 280.014 355.302C280.767 359.301 280.582 370.609 280.589 375.196L280.677 411.247L281.483 464.069C281.58 471.812 282.59 482.565 281.293 489.947L280.582 489.547C280.353 490.774 280.215 491.66 280.079 492.9L279.27 493.255L278.928 492.682C278.54 492.041 278.731 492.247 278.414 491.947C276.131 489.417 274.949 487.695 273.013 484.902Z"/><path fill="#01377B" d="M280.014 355.302C280.767 359.301 280.582 370.609 280.589 375.196L280.677 411.247L281.483 464.069C281.58 471.812 282.59 482.565 281.293 489.947L280.582 489.547C280.353 490.774 280.215 491.66 280.079 492.9L279.27 493.255L278.928 492.682C278.54 492.041 278.731 492.247 278.414 491.947C280.353 487.61 278.998 418.643 279.512 409.688C279.728 405.92 279.88 391.143 280.029 385.998C280.304 376.487 279.377 364.961 280.014 355.302Z"/><path fill="#65F6FB" d="M526.27 27.5434C528.346 27.4786 536.401 27.0344 537.962 27.4367C562.485 33.7576 580.443 59.0329 580.202 84.2006C579.681 138.719 581.334 193.782 580.366 248.277C580.523 277.428 580.447 306.581 580.138 335.731C580.073 344.659 580.771 363.157 580.001 371.27C578.481 381.053 579.905 400.617 579.074 411.645L579 385.46C578.077 383.988 577.966 383.13 576.725 382.791C575.243 386.49 577.521 400.501 575.508 401.492C574.806 399.548 574.633 399.291 573.287 397.716L572.672 397.671C572.297 399.746 572.422 405.242 572.421 407.629C572.063 405.639 572.035 403.999 571.94 401.986L571.335 301.853C571.671 295.011 571.305 284.563 571.29 277.476L571.342 228.269L571.769 158.353C571.872 144.627 572.26 129.842 571.943 116.191C572.068 107.161 572.08 98.13 571.981 89.0997C570.672 77.2824 573.818 67.5383 567.8 56.0356C561.935 44.8252 552.513 36.2566 540.591 31.7143C535.772 29.878 531.257 29.212 526.675 27.6821L526.27 27.5434Z"/><path fill="#37BCF4" d="M526.27 27.5434C528.346 27.4786 536.401 27.0344 537.962 27.4367C562.485 33.7576 580.443 59.0329 580.202 84.2006C579.681 138.719 581.334 193.782 580.366 248.277C579.588 245.138 579.803 219.06 579.793 214.479L579.542 142.579L579.442 110.536C579.39 94.1014 580.134 79.1669 574.584 63.3563C570.468 53.2574 563.677 43.1923 554.602 36.9367C552.871 35.744 551.309 33.1434 549.327 34.2281C549.628 34.9759 556.272 39.8501 557.524 40.9702C569.173 51.3988 573.961 64.926 572.878 80.3726C572.665 83.4191 573.018 85.934 571.981 89.0997C570.672 77.2824 573.818 67.5383 567.8 56.0356C561.935 44.8252 552.513 36.2566 540.591 31.7143C535.772 29.878 531.257 29.212 526.675 27.6821L526.27 27.5434Z"/><defs><linearGradient id="gradient_13" gradientUnits="userSpaceOnUse" x1="215.3318" y1="18.195038" x2="215.59422" y2="24.131413"><stop offset="0" stop-color="#5CBBF5" stop-opacity="0.98823529"/><stop offset="1" stop-color="#6ED7FF"/></linearGradient></defs><path fill="url(#gradient_13)" d="M169.952 20.197C171.246 19.6812 172.093 19.4585 173.528 19.4661C199.52 19.6035 225.53 19.476 251.519 19.6759C254.19 19.6964 260.576 22.1465 263.219 23.1081C257.023 23.8502 250.625 23.0466 245.237 23.5755C228.494 23.0146 210.638 23.8403 193.782 23.5073C188.194 23.3969 175.607 23.9576 170.629 22.7491L169.952 20.197Z"/><path fill="#01377B" fill-opacity="0.98823529" d="M674.887 614.122L675.341 615.236C674.4 616.445 672.925 618.232 672.108 619.462C668.318 623.825 662.474 629.391 658.319 633.593C646.794 645.248 632.988 659.283 621.213 670.122C613.968 676.792 581.682 711.802 576.155 713.423C587.481 699.935 599.816 688.454 612.264 676.254L660.215 628.561C665.175 623.547 669.928 619.371 674.887 614.122Z"/><path fill="#01377B" fill-opacity="0.98823529" d="M736.573 555.259C733.881 558.736 727.244 565.157 723.908 568.521C714.43 578.081 704.633 587.43 695.191 597.056C691.011 601.833 677.054 615.291 672.108 619.462C672.925 618.232 674.4 616.445 675.341 615.236L674.887 614.122C681.371 607.789 687.232 601.57 693.949 595.361C701.896 585.163 719.474 573.249 728.02 561.592C729.693 560.589 733.544 557.163 736.573 555.259Z"/></svg>